<?xml version="1.0" encoding="UTF-8"?> <svg xmlns="http://www.w3.org/2000/svg" width="599" height="85" viewBox="0 0 599 85" fill="none"> <path d="M13.8459 45.3018V83.1386H0V0.637695H20.2264C34.1999 0.637695 39.3044 7.59253 39.3044 19.1414V29.7331C39.3044 38.6021 36.1141 43.8342 28.2022 45.6846L41.4738 83.2024H26.8622L13.8459 45.3018ZM13.8459 11.9313V37.5813H18.5037C23.2253 37.5813 25.3309 35.1566 25.3309 30.754V18.6309C25.3309 14.1007 23.2891 11.9313 18.5037 11.9313H13.8459Z" fill="#FEF4F9"></path> <path d="M83.1364 55.8306V63.9978C83.1364 76.4399 77.2663 84.0966 64.0584 84.0966C50.6592 84.0966 44.2148 75.4828 44.2148 63.1683V34.0728C44.2148 21.6307 50.6592 13.1445 64.0584 13.1445C77.3301 13.1445 83.1364 20.8012 83.1364 33.2434V49.8967H57.5503V65.2101C57.5503 69.9317 59.7197 72.9944 64.2499 72.9944C68.6525 72.9944 70.439 70.0593 70.439 65.2101V55.8306H83.1364ZM57.5503 40.1344H70.1838V32.031C70.1838 27.3094 68.3334 24.2467 63.9946 24.2467C59.4644 24.2467 57.5503 27.3094 57.5503 32.031V40.1344Z" fill="#FEF4F9"></path> <path d="M127.551 83.1386H114.152V76.0561H113.897C112.174 79.9483 109.494 84.0957 102.348 84.0957C93.8616 84.0957 88.6934 78.736 88.6934 66.6767V30.5626C88.6934 18.5033 93.3512 13.1436 101.837 13.1436C109.047 13.1436 112.174 17.1634 113.897 21.1832H114.152V0.637695H127.551V83.1386ZM102.093 66.2301C102.093 70.505 103.305 73.3125 108.027 73.3125C112.684 73.3125 114.088 70.505 114.088 66.2301V30.3074C113.833 26.5429 112.238 24.1182 108.027 24.1182C103.305 24.1182 102.093 26.8619 102.093 31.1369V66.2301Z" fill="#FEF4F9"></path> <path d="M147.389 45.3018V83.1386H133.543V0.637695H153.769C167.743 0.637695 172.847 7.59253 172.847 19.1414V29.7331C172.847 38.6021 169.657 43.8342 161.745 45.6846L175.017 83.2024H160.405L147.389 45.3018ZM147.389 11.9313V37.5813H151.983C156.704 37.5813 158.81 35.1566 158.81 30.754V18.6309C158.81 14.1007 156.768 11.9313 151.983 11.9313H147.389Z" fill="#FEF4F9"></path> <path d="M177.695 63.1683V34.0728C177.695 21.6307 184.14 13.1445 197.539 13.1445C210.811 13.1445 217.255 21.6307 217.255 34.0728V63.1683C217.255 75.4828 210.811 84.0966 197.539 84.0966C184.14 84.0966 177.695 75.4828 177.695 63.1683ZM203.856 65.2101V32.031C203.856 27.3094 201.878 24.2467 197.539 24.2467C193.009 24.2467 191.095 27.3094 191.095 32.031V65.2739C191.095 69.9955 193.073 73.0582 197.539 73.0582C201.942 72.9944 203.856 69.9955 203.856 65.2101Z" fill="#FEF4F9"></path> <path d="M260.456 14.1006L247.184 83.0747H232.317L219.109 14.1006H232.891L240.421 60.2322H240.548L248.205 14.1006H260.456Z" fill="#FEF4F9"></path> <path d="M301.23 55.8306V63.9978C301.23 76.4399 295.36 84.0966 282.152 84.0966C268.753 84.0966 262.309 75.4828 262.309 63.1683V34.0728C262.309 21.6307 268.753 13.1445 282.152 13.1445C295.424 13.1445 301.23 20.8012 301.23 33.2434V49.8967H275.708V65.2101C275.708 69.9317 277.877 72.9944 282.407 72.9944C286.81 72.9944 288.597 70.0593 288.597 65.2101V55.8306H301.23ZM275.708 40.1344H288.341V32.031C288.341 27.3094 286.491 24.2467 282.152 24.2467C277.622 24.2467 275.708 27.3094 275.708 32.031V40.1344Z" fill="#FEF4F9"></path> <path d="M331.154 29.3505H327.389C322.54 29.3505 320.434 31.6475 320.434 36.3054V83.1388H307.035V14.1009H320.434V21.1834H320.69C321.774 17.9931 324.582 13.9095 331.154 13.6543V29.3505Z" fill="#FEF4F9"></path> <path d="M347.787 84.1999C352.667 84.1999 356.623 80.244 356.623 75.3641C356.623 70.4842 352.667 66.5283 347.787 66.5283C342.907 66.5283 338.951 70.4842 338.951 75.3641C338.951 80.244 342.907 84.1999 347.787 84.1999Z" fill="#C00F22"></path> <path d="M368.543 67.8894V54.2987H371.606V67.9532C371.606 75.9927 376.327 81.0972 385.26 81.0972C393.874 81.0972 398.149 75.227 398.149 68.0808V63.2954C398.149 56.0853 395.341 52.1293 388.387 45.5573L380.219 37.5178C372.563 30.1163 369.053 25.8413 369.053 17.8018V14.4839C369.053 5.35969 375.115 0 384.367 0C394.703 0 399.935 4.72163 399.935 14.8668V25.0757H397V14.7391C397 6.44439 392.47 2.67984 384.367 2.67984C377.157 2.67984 371.925 6.95483 371.925 14.4839V17.738C371.925 24.5652 375.562 28.585 382.006 34.7742L390.301 42.8137C397.575 50.0237 401.275 54.4902 401.275 63.0401V67.8894C401.275 76.5032 396.043 83.7132 385.196 83.7132C374.285 83.7132 368.543 77.2688 368.543 67.8894Z" fill="#FEF4F9"></path> <path d="M407.143 63.9972V19.716C407.143 8.99662 411.864 0 424.434 0C437.323 0 440.641 7.08244 440.641 18.1208V27.8831H437.45V17.8656C437.45 8.48617 435.026 2.67984 424.434 2.67984C414.225 2.67984 410.46 10.3365 410.46 19.3332V64.3801C410.46 73.2491 414.225 81.0334 424.434 81.0334C435.026 81.0334 437.45 74.4614 437.45 65.72V51.4913H440.641V65.5924C440.641 75.8013 437.323 83.7132 424.434 83.7132C411.864 83.7132 407.143 74.589 407.143 63.9972Z" fill="#FEF4F9"></path> <path d="M477.013 42.4943H450.852V83.1386H447.662V0.637695H450.852V39.8145H477.013V0.637695H480.267V83.1386H477.013V42.4943Z" fill="#FEF4F9"></path> <path d="M487.604 63.9972V19.716C487.604 8.99662 492.836 0 505.278 0C517.784 0 523.08 8.99662 523.08 19.716V63.9972C523.08 74.589 517.847 83.7132 505.278 83.7132C492.836 83.7132 487.604 74.589 487.604 63.9972ZM519.698 64.3801V19.3332C519.698 10.3365 515.423 2.67984 505.214 2.67984C495.133 2.67984 490.858 10.3365 490.858 19.3332V64.3801C490.858 73.2491 495.133 81.0334 505.214 81.0334C515.487 81.0334 519.698 73.2491 519.698 64.3801Z" fill="#FEF4F9"></path> <path d="M529.463 63.9972V19.716C529.463 8.99662 534.695 0 547.137 0C559.643 0 564.939 8.99662 564.939 19.716V63.9972C564.939 74.589 559.707 83.7132 547.137 83.7132C534.695 83.7132 529.463 74.589 529.463 63.9972ZM561.621 64.3801V19.3332C561.621 10.3365 557.346 2.67984 547.137 2.67984C537.056 2.67984 532.781 10.3365 532.781 19.3332V64.3801C532.781 73.2491 537.056 81.0334 547.137 81.0334C557.346 81.0334 561.621 73.2491 561.621 64.3801Z" fill="#FEF4F9"></path> <path d="M572.277 0.637695H575.468V80.4587H598.374V83.1386H572.341V0.637695H572.277Z" fill="#FEF4F9"></path> </svg> 