<?xml version="1.0" encoding="UTF-8"?> <svg xmlns="http://www.w3.org/2000/svg" width="68" height="49" viewBox="0 0 68 49" fill="none"> <rect width="67.5" height="49" fill="#230040"></rect> <line y1="5.72851" x2="67.5" y2="5.72851" stroke="#FEF4F9" stroke-width="0.544444"></line> <line y1="42.7283" x2="67.5" y2="42.7283" stroke="#FEF4F9" stroke-width="0.544444"></line> <rect x="1.99805" y="0.999756" width="5" height="3.5" rx="1.63333" fill="#FEF4F9"></rect> <rect x="1.99805" y="44.0002" width="5" height="3.5" rx="1.63333" fill="#FEF4F9"></rect> <rect x="8.50195" y="0.999756" width="5" height="3.5" rx="1.63333" fill="#FEF4F9"></rect> <rect x="8.50195" y="44.0002" width="5" height="3.5" rx="1.63333" fill="#FEF4F9"></rect> <rect x="14.998" y="0.999756" width="5" height="3.5" rx="1.63333" fill="#FEF4F9"></rect> <rect x="14.998" y="44.0002" width="5" height="3.5" rx="1.63333" fill="#FEF4F9"></rect> <rect x="21.5" y="0.999756" width="5" height="3.5" rx="1.63333" fill="#FEF4F9"></rect> <rect x="21.5" y="44.0002" width="5" height="3.5" rx="1.63333" fill="#FEF4F9"></rect> <rect x="28" y="0.999756" width="5" height="3.5" rx="1.63333" fill="#FEF4F9"></rect> <rect x="28" y="44.0002" width="5" height="3.5" rx="1.63333" fill="#FEF4F9"></rect> <rect x="34.5" y="0.999756" width="5" height="3.5" rx="1.63333" fill="#FEF4F9"></rect> <rect x="34.5" y="44.0002" width="5" height="3.5" rx="1.63333" fill="#FEF4F9"></rect> <rect x="40.998" y="0.999756" width="5" height="3.5" rx="1.63333" fill="#FEF4F9"></rect> <rect x="40.998" y="44.0002" width="5" height="3.5" rx="1.63333" fill="#FEF4F9"></rect> <rect x="47.5" y="0.999756" width="5" height="3.5" rx="1.63333" fill="#FEF4F9"></rect> <rect x="47.5" y="44.0002" width="5" height="3.5" rx="1.63333" fill="#FEF4F9"></rect> <rect x="54" y="0.999756" width="5" height="3.5" rx="1.63333" fill="#FEF4F9"></rect> <rect x="54" y="44.0002" width="5" height="3.5" rx="1.63333" fill="#FEF4F9"></rect> <rect x="60.5" y="0.999756" width="5" height="3.5" rx="1.63333" fill="#FEF4F9"></rect> <rect x="60.5" y="44.0002" width="5" height="3.5" rx="1.63333" fill="#FEF4F9"></rect> <path d="M44.3667 23.5572C45.0926 23.9764 45.0926 25.0241 44.3667 25.4433L29.6333 33.9495C28.9074 34.3687 28 33.8448 28 33.0065L28 15.9939C28 15.1557 28.9074 14.6318 29.6333 15.0509L44.3667 23.5572Z" fill="#FEF4F9"></path> </svg> 