<?xml version="1.0" encoding="UTF-8"?> <svg xmlns="http://www.w3.org/2000/svg" width="31" height="31" viewBox="0 0 31 31" fill="none"> <g clip-path="url(#clip0_270_9531)"> <path d="M30.082 15.9414C30.082 7.91406 23.5781 1.41016 15.5508 1.41016C7.52344 1.41016 1.01953 7.91406 1.01953 15.9414C1.01953 23.1941 6.3334 29.2059 13.2803 30.2969V20.142H9.58887V15.9414H13.2803V12.7398C13.2803 9.09824 15.4482 7.08672 18.7688 7.08672C20.359 7.08672 22.0219 7.37031 22.0219 7.37031V10.9445H20.1891C18.3844 10.9445 17.8213 12.0648 17.8213 13.2139V15.9414H21.8514L21.2068 20.142H17.8213V30.2969C24.7682 29.2059 30.082 23.1941 30.082 15.9414Z" fill="#FEF4F9"></path> </g> <defs> <clipPath id="clip0_270_9531"> <rect width="30" height="30" fill="white" transform="translate(0.550781 0.941406)"></rect> </clipPath> </defs> </svg> 