<?xml version="1.0" encoding="UTF-8"?> <svg xmlns="http://www.w3.org/2000/svg" width="496" height="296" viewBox="0 0 496 296" fill="none"> <path d="M16.7923 125.635V94.0888L79.2541 3.65581H130.149L70.0005 94.0888L46.8665 87.1486H160.854V125.635H16.7923ZM93.1345 150.872V125.635L94.6067 87.1486V64.6455H141.295V150.872H93.1345ZM333.16 125.635V94.0888L395.622 3.65581H446.517L386.368 94.0888L363.234 87.1486H477.222V125.635H333.16ZM409.502 150.872V125.635L410.974 87.1486V64.6455H457.663V150.872H409.502Z" fill="#CF0029"></path> <path d="M244.96 154.237C231.921 154.237 220.354 151.223 210.259 145.194C200.304 139.165 192.453 130.402 186.704 118.905C181.096 107.408 178.292 93.528 178.292 77.2641C178.292 61.0001 181.096 47.1197 186.704 35.6228C192.453 24.1259 200.304 15.363 210.259 9.33416C220.354 3.3053 231.921 0.290865 244.96 0.290865C257.999 0.290865 269.496 3.3053 279.45 9.33416C289.545 15.363 297.397 24.1259 303.005 35.6228C308.754 47.1197 311.628 61.0001 311.628 77.2641C311.628 93.528 308.754 107.408 303.005 118.905C297.397 130.402 289.545 139.165 279.45 145.194C269.496 151.223 257.999 154.237 244.96 154.237ZM244.96 114.489C248.184 114.489 251.059 113.367 253.582 111.124C256.106 108.881 258.069 105.025 259.471 99.5568C261.013 94.0888 261.784 86.6579 261.784 77.2641C261.784 67.73 261.013 60.2991 259.471 54.9713C258.069 49.5032 256.106 45.6476 253.582 43.4043C251.059 41.161 248.184 40.0393 244.96 40.0393C241.735 40.0393 238.861 41.161 236.337 43.4043C233.813 45.6476 231.78 49.5032 230.238 54.9713C228.836 60.2991 228.135 67.73 228.135 77.2641C228.135 86.6579 228.836 94.0888 230.238 99.5568C231.78 105.025 233.813 108.881 236.337 111.124C238.861 113.367 241.735 114.489 244.96 114.489ZM20.2758 239.523H64.0933V255.906H20.2758V239.523ZM21.836 276.969H71.3745V293.872H0.902447V202.857H69.6842V219.76H21.836V276.969ZM94.6353 293.872V202.857H134.032C142.18 202.857 149.201 204.2 155.096 206.887C160.99 209.488 165.541 213.258 168.748 218.199C171.955 223.14 173.559 229.035 173.559 235.882C173.559 242.644 171.955 248.495 168.748 253.435C165.541 258.29 160.99 262.017 155.096 264.617C149.201 267.218 142.18 268.518 134.032 268.518H106.337L115.699 259.286V293.872H94.6353ZM152.495 293.872L129.741 260.847H152.235L175.249 293.872H152.495ZM115.699 261.627L106.337 251.745H132.862C139.363 251.745 144.217 250.358 147.424 247.584C150.632 244.724 152.235 240.823 152.235 235.882C152.235 230.855 150.632 226.954 147.424 224.18C144.217 221.407 139.363 220.02 132.862 220.02H106.337L115.699 210.008V261.627ZM196.749 293.872V202.857H236.145C244.293 202.857 251.315 204.2 257.209 206.887C263.103 209.488 267.654 213.258 270.861 218.199C274.068 223.14 275.672 229.035 275.672 235.882C275.672 242.644 274.068 248.495 270.861 253.435C267.654 258.29 263.103 262.017 257.209 264.617C251.315 267.218 244.293 268.518 236.145 268.518H208.451L217.812 259.286V293.872H196.749ZM254.608 293.872L231.855 260.847H254.348L277.362 293.872H254.608ZM217.812 261.627L208.451 251.745H234.975C241.476 251.745 246.33 250.358 249.538 247.584C252.745 244.724 254.348 240.823 254.348 235.882C254.348 230.855 252.745 226.954 249.538 224.18C246.33 221.407 241.476 220.02 234.975 220.02H208.451L217.812 210.008V261.627ZM343.069 295.433C335.875 295.433 329.2 294.262 323.046 291.922C316.978 289.582 311.691 286.288 307.183 282.04C302.762 277.793 299.295 272.809 296.781 267.088C294.354 261.367 293.141 255.126 293.141 248.365C293.141 241.603 294.354 235.362 296.781 229.641C299.295 223.92 302.806 218.936 307.313 214.689C311.821 210.441 317.108 207.147 323.176 204.807C329.244 202.467 335.831 201.296 342.939 201.296C350.134 201.296 356.722 202.467 362.703 204.807C368.77 207.147 374.015 210.441 378.435 214.689C382.943 218.936 386.453 223.92 388.967 229.641C391.481 235.276 392.738 241.517 392.738 248.365C392.738 255.126 391.481 261.41 388.967 267.218C386.453 272.939 382.943 277.923 378.435 282.17C374.015 286.331 368.77 289.582 362.703 291.922C356.722 294.262 350.177 295.433 343.069 295.433ZM342.939 277.49C347.013 277.49 350.741 276.796 354.121 275.409C357.588 274.022 360.622 272.029 363.223 269.428C365.823 266.828 367.817 263.75 369.204 260.197C370.677 256.643 371.414 252.699 371.414 248.365C371.414 244.03 370.677 240.086 369.204 236.532C367.817 232.979 365.823 229.901 363.223 227.301C360.709 224.7 357.718 222.707 354.251 221.32C350.784 219.933 347.013 219.24 342.939 219.24C338.865 219.24 335.095 219.933 331.627 221.32C328.247 222.707 325.256 224.7 322.656 227.301C320.055 229.901 318.018 232.979 316.545 236.532C315.158 240.086 314.464 244.03 314.464 248.365C314.464 252.612 315.158 256.556 316.545 260.197C318.018 263.75 320.012 266.828 322.526 269.428C325.126 272.029 328.16 274.022 331.627 275.409C335.095 276.796 338.865 277.49 342.939 277.49ZM415.069 293.872V202.857H454.466C462.614 202.857 469.635 204.2 475.53 206.887C481.424 209.488 485.975 213.258 489.182 218.199C492.389 223.14 493.993 229.035 493.993 235.882C493.993 242.644 492.389 248.495 489.182 253.435C485.975 258.29 481.424 262.017 475.53 264.617C469.635 267.218 462.614 268.518 454.466 268.518H426.771L436.133 259.286V293.872H415.069ZM472.929 293.872L450.175 260.847H472.669L495.683 293.872H472.929ZM436.133 261.627L426.771 251.745H453.296C459.797 251.745 464.651 250.358 467.858 247.584C471.065 244.724 472.669 240.823 472.669 235.882C472.669 230.855 471.065 226.954 467.858 224.18C464.651 221.407 459.797 220.02 453.296 220.02H426.771L436.133 210.008V261.627Z" fill="#0C0016"></path> </svg> 