<?xml version="1.0" encoding="UTF-8"?> <svg xmlns="http://www.w3.org/2000/svg" width="76" height="88" viewBox="0 0 76 88" fill="none"> <circle cx="38" cy="43.543" r="37.0256" stroke="#230040" stroke-width="1.94872"></circle> <path d="M29.8809 7.17094L37.6757 1" stroke="#230040" stroke-width="1.29915"></path> <path d="M38.0019 12.0391L30.207 7.16727" stroke="#230040" stroke-width="1.29915"></path> <path d="M75.0273 80.896L67.5573 86.7422" stroke="#230040" stroke-width="1.29915"></path> <path d="M65.6074 75.7031L75.6758 80.8997" stroke="#230040" stroke-width="1.29915"></path> <line x1="37.0273" y1="80.5686" x2="74.7026" y2="80.5686" stroke="#230040" stroke-width="1.94872"></line> <rect x="16.5631" y="51.3912" width="9.02705" height="9.02705" fill="#CB99B0" stroke="#230040" stroke-width="0.649573"></rect> <rect x="23.3951" y="33.1763" width="9.02705" height="9.02705" fill="#CB99B0" stroke="#230040" stroke-width="0.649573"></rect> <rect x="34.7779" y="51.3912" width="9.02705" height="9.02705" fill="#CB99B0" stroke="#230040" stroke-width="0.649573"></rect> <rect x="41.6099" y="33.1763" width="9.02705" height="9.02705" fill="#CB99B0" stroke="#230040" stroke-width="0.649573"></rect> <rect x="32.5006" y="14.9615" width="9.02705" height="9.02705" fill="#CB99B0" stroke="#230040" stroke-width="0.649573"></rect> <rect x="25.6705" y="51.3912" width="9.02705" height="9.02705" fill="#CB99B0" stroke="#230040" stroke-width="0.649573"></rect> <rect x="32.5006" y="33.1763" width="9.02705" height="9.02705" fill="#CB99B0" stroke="#230040" stroke-width="0.649573"></rect> <rect x="43.8853" y="51.3912" width="9.02705" height="9.02705" fill="#CB99B0" stroke="#230040" stroke-width="0.649573"></rect> <rect x="50.7154" y="33.1763" width="9.02705" height="9.02705" fill="#CB99B0" stroke="#230040" stroke-width="0.649573"></rect> <rect x="41.608" y="14.9615" width="9.02705" height="9.02705" fill="#CB99B0" stroke="#230040" stroke-width="0.649573"></rect> <rect x="16.5631" y="60.4967" width="9.02705" height="9.02705" fill="#CB99B0" stroke="#230040" stroke-width="0.649573"></rect> <rect x="23.3951" y="42.2857" width="9.02705" height="9.02705" fill="#CB99B0" stroke="#230040" stroke-width="0.649573"></rect> <rect x="34.7779" y="60.4967" width="9.02705" height="9.02705" fill="#CB99B0" stroke="#230040" stroke-width="0.649573"></rect> <rect x="41.6099" y="42.2857" width="9.02705" height="9.02705" fill="#CB99B0" stroke="#230040" stroke-width="0.649573"></rect> <rect x="32.5006" y="24.0709" width="9.02705" height="9.02705" fill="#CB99B0" stroke="#230040" stroke-width="0.649573"></rect> <rect x="25.6705" y="60.4967" width="9.02705" height="9.02705" fill="#CB99B0" stroke="#230040" stroke-width="0.649573"></rect> <rect x="32.5006" y="42.2857" width="9.02705" height="9.02705" fill="#CB99B0" stroke="#230040" stroke-width="0.649573"></rect> <rect x="43.8853" y="60.4967" width="9.02705" height="9.02705" fill="#CB99B0" stroke="#230040" stroke-width="0.649573"></rect> <rect x="50.7154" y="42.2857" width="9.02705" height="9.02705" fill="#CB99B0" stroke="#230040" stroke-width="0.649573"></rect> <rect x="41.6099" y="24.0709" width="9.02705" height="9.02705" fill="#CB99B0" stroke="#230040" stroke-width="0.649573"></rect> </svg> 