<?xml version="1.0" encoding="UTF-8"?> <svg xmlns="http://www.w3.org/2000/svg" width="27" height="30" viewBox="0 0 27 30" fill="none"> <g clip-path="url(#clip0_506_2)"> <rect x="2" y="4" width="23" height="22" rx="5" fill="#FEF4F9"></rect> <path d="M13.1382 8.26221C9.40969 8.26221 6.40226 11.2681 6.40226 14.9946C6.40226 18.7212 9.40969 21.727 13.1382 21.727C16.8667 21.727 19.8741 18.7212 19.8741 14.9946C19.8741 11.2681 16.8667 8.26221 13.1382 8.26221ZM13.1382 19.3716C10.7287 19.3716 8.75896 17.4087 8.75896 14.9946C8.75896 12.5806 10.7229 10.6177 13.1382 10.6177C15.5535 10.6177 17.5174 12.5806 17.5174 14.9946C17.5174 17.4087 15.5477 19.3716 13.1382 19.3716V19.3716ZM21.7208 7.98682C21.7208 8.85986 21.0173 9.55713 20.1497 9.55713C19.2762 9.55713 18.5785 8.854 18.5785 7.98682C18.5785 7.11963 19.282 6.4165 20.1497 6.4165C21.0173 6.4165 21.7208 7.11963 21.7208 7.98682ZM26.1821 9.58057C26.0824 7.47705 25.6017 5.61377 24.0599 4.07861C22.5239 2.54346 20.6597 2.06299 18.5551 1.95752C16.386 1.83447 9.88455 1.83447 7.71545 1.95752C5.6167 2.05713 3.75244 2.5376 2.21063 4.07275C0.668808 5.60791 0.193951 7.47119 0.088427 9.57471C-0.034684 11.7427 -0.034684 18.2407 0.088427 20.4087C0.188088 22.5122 0.668808 24.3755 2.21063 25.9106C3.75244 27.4458 5.61083 27.9263 7.71545 28.0317C9.88455 28.1548 16.386 28.1548 18.5551 28.0317C20.6597 27.9321 22.5239 27.4517 24.0599 25.9106C25.5959 24.3755 26.0766 22.5122 26.1821 20.4087C26.3052 18.2407 26.3052 11.7485 26.1821 9.58057V9.58057ZM23.3799 22.7349C22.9226 23.8833 22.0374 24.7681 20.8825 25.231C19.153 25.9165 15.0493 25.7583 13.1382 25.7583C11.227 25.7583 7.11748 25.9106 5.39392 25.231C4.24489 24.7739 3.35966 23.8892 2.89653 22.7349C2.21063 21.0063 2.36891 16.9048 2.36891 14.9946C2.36891 13.0845 2.21649 8.97705 2.89653 7.25439C3.3538 6.10596 4.23903 5.22119 5.39392 4.7583C7.12334 4.07275 11.227 4.23096 13.1382 4.23096C15.0493 4.23096 19.1589 4.07861 20.8825 4.7583C22.0315 5.21533 22.9167 6.1001 23.3799 7.25439C24.0658 8.98291 23.9075 13.0845 23.9075 14.9946C23.9075 16.9048 24.0658 21.0122 23.3799 22.7349Z" fill="#FEF4F9"></path> <circle cx="13" cy="15" r="7" fill="#0C0016"></circle> <circle cx="20.25" cy="8.25" r="1.75" fill="#0C0016"></circle> </g> <defs> <clipPath id="clip0_506_2"> <rect width="26.2637" height="30" fill="white"></rect> </clipPath> </defs> </svg> 