<?xml version="1.0" encoding="UTF-8"?> <svg xmlns="http://www.w3.org/2000/svg" width="74" height="81" viewBox="0 0 74 81" fill="none"> <path d="M12.0819 0.755117H62.6747C64.3429 0.755117 65.6952 2.10743 65.6952 3.77559V76.2453C65.6952 77.9202 64.3324 79.2753 62.6576 79.2657L3.75842 78.9311C2.09699 78.9216 0.755117 77.5721 0.755117 75.9107V12.0819H7.55117C10.0534 12.0819 12.0819 10.0534 12.0819 7.55117V0.755117ZM10.5716 1.82301V7.55117C10.5716 9.21933 9.21933 10.5716 7.55117 10.5716H1.82301L10.5716 1.82301Z" stroke="#230040" stroke-width="1.51023"></path> <rect x="28.6934" y="38.5078" width="45.307" height="12.0819" rx="3.77559" fill="#230040"></rect> <rect x="28.6934" y="54.3672" width="45.307" height="12.0819" rx="3.77559" fill="#230040"></rect> <rect x="28.6934" y="22.6523" width="45.307" height="12.0819" rx="3.77559" fill="#230040"></rect> <path d="M44.3236 46.8459C44.0377 46.8459 43.7739 46.7936 43.5323 46.6889C43.2947 46.5801 43.0994 46.4271 42.9463 46.2298L43.49 45.5773C43.6068 45.7304 43.7296 45.8472 43.8585 45.9277C43.9874 46.0042 44.1263 46.0425 44.2753 46.0425C44.674 46.0425 44.8734 45.8089 44.8734 45.3417V43.3301H43.3873V42.5448H45.846V45.2874C45.846 45.8109 45.7171 46.2016 45.4593 46.4593C45.2016 46.7171 44.823 46.8459 44.3236 46.8459ZM46.1684 46.7734L48.0531 42.5448H49.0197L50.9105 46.7734H49.8835L48.337 43.0401H48.7237L47.1711 46.7734H46.1684ZM47.1107 45.8673L47.3705 45.1243H49.5452L49.811 45.8673H47.1107ZM52.3877 46.7734L50.5634 42.5448H51.6205L53.2153 46.2902H52.5931L54.2121 42.5448H55.1847L53.3543 46.7734H52.3877ZM54.8404 46.7734L56.7252 42.5448H57.6917L59.5825 46.7734H58.5556L57.0091 43.0401H57.3957L55.8432 46.7734H54.8404ZM55.7828 45.8673L56.0425 45.1243H58.2173L58.4831 45.8673H55.7828Z" fill="#FEF4F9"></path> <path d="M32.9955 62.7053C32.7096 62.7053 32.4458 62.6529 32.2042 62.5482C31.9665 62.4395 31.7712 62.2865 31.6182 62.0891L32.1619 61.4367C32.2787 61.5897 32.4015 61.7065 32.5304 61.7871C32.6592 61.8636 32.7982 61.9019 32.9472 61.9019C33.3459 61.9019 33.5452 61.6683 33.5452 61.2011V59.1895H32.0592V58.4042H34.5178V61.1467C34.5178 61.6703 34.389 62.0609 34.1312 62.3187C33.8735 62.5764 33.4949 62.7053 32.9955 62.7053ZM34.8402 62.6328L36.725 58.4042H37.6915L39.5824 62.6328H38.5554L37.0089 58.8995H37.3955L35.843 62.6328H34.8402ZM35.7826 61.7267L36.0424 60.9836H38.2171L38.4829 61.7267H35.7826ZM41.0596 62.6328L39.2352 58.4042H40.2924L41.8872 62.1495H41.265L42.884 58.4042H43.8566L42.0262 62.6328H41.0596ZM43.5123 62.6328L45.397 58.4042H46.3636L48.2544 62.6328H47.2275L45.681 58.8995H46.0676L44.5151 62.6328H43.5123ZM44.4547 61.7267L44.7144 60.9836H46.8892L47.155 61.7267H44.4547ZM50.0825 62.7053C49.7443 62.7053 49.4201 62.661 49.11 62.5724C48.7999 62.4798 48.5502 62.361 48.3609 62.216L48.6931 61.479C48.8744 61.6079 49.0878 61.7146 49.3335 61.7992C49.5832 61.8797 49.8349 61.92 50.0886 61.92C50.2819 61.92 50.4369 61.9019 50.5537 61.8656C50.6746 61.8253 50.7632 61.771 50.8195 61.7025C50.8759 61.634 50.9041 61.5555 50.9041 61.4669C50.9041 61.3541 50.8598 61.2655 50.7712 61.2011C50.6826 61.1326 50.5658 61.0783 50.4208 61.038C50.2759 60.9937 50.1148 60.9534 49.9376 60.9172C49.7644 60.8769 49.5892 60.8286 49.412 60.7722C49.2388 60.7158 49.0798 60.6433 48.9348 60.5547C48.7898 60.4661 48.671 60.3493 48.5784 60.2044C48.4898 60.0594 48.4455 59.8741 48.4455 59.6486C48.4455 59.407 48.5099 59.1875 48.6388 58.9901C48.7717 58.7888 48.969 58.6297 49.2308 58.5129C49.4966 58.3921 49.8288 58.3317 50.2275 58.3317C50.4933 58.3317 50.7551 58.3639 51.0129 58.4283C51.2706 58.4887 51.4981 58.5814 51.6955 58.7062L51.3934 59.4492C51.1961 59.3365 50.9988 59.2539 50.8014 59.2016C50.6041 59.1452 50.4108 59.117 50.2215 59.117C50.0322 59.117 49.8772 59.1391 49.7563 59.1834C49.6355 59.2277 49.5489 59.2861 49.4966 59.3586C49.4442 59.4271 49.418 59.5076 49.418 59.6003C49.418 59.709 49.4623 59.7976 49.5509 59.8661C49.6395 59.9305 49.7563 59.9829 49.9013 60.0231C50.0463 60.0634 50.2054 60.1037 50.3786 60.1439C50.5558 60.1842 50.7309 60.2305 50.9041 60.2829C51.0813 60.3352 51.2424 60.4057 51.3874 60.4943C51.5324 60.5829 51.6492 60.6997 51.7378 60.8447C51.8304 60.9897 51.8767 61.1729 51.8767 61.3944C51.8767 61.632 51.8103 61.8495 51.6774 62.0468C51.5445 62.2442 51.3451 62.4033 51.0793 62.5241C50.8175 62.6449 50.4853 62.7053 50.0825 62.7053ZM54.5691 62.7053C54.2429 62.7053 53.9389 62.6529 53.6569 62.5482C53.3791 62.4395 53.1374 62.2865 52.932 62.0891C52.7266 61.8918 52.5655 61.6602 52.4488 61.3944C52.336 61.1286 52.2796 60.8366 52.2796 60.5185C52.2796 60.2003 52.336 59.9083 52.4488 59.6425C52.5655 59.3767 52.7266 59.1452 52.932 58.9478C53.1414 58.7505 53.3851 58.5995 53.663 58.4948C53.9409 58.386 54.2449 58.3317 54.5752 58.3317C54.9416 58.3317 55.2719 58.3961 55.5659 58.525C55.8639 58.6498 56.1136 58.8351 56.315 59.0807L55.6867 59.6607C55.5417 59.4956 55.3806 59.3727 55.2034 59.2922C55.0262 59.2076 54.8329 59.1653 54.6235 59.1653C54.4262 59.1653 54.2449 59.1975 54.0798 59.262C53.9147 59.3264 53.7717 59.419 53.6509 59.5399C53.5301 59.6607 53.4354 59.8036 53.367 59.9688C53.3025 60.1339 53.2703 60.3171 53.2703 60.5185C53.2703 60.7198 53.3025 60.9031 53.367 61.0682C53.4354 61.2333 53.5301 61.3763 53.6509 61.4971C53.7717 61.6179 53.9147 61.7106 54.0798 61.775C54.2449 61.8394 54.4262 61.8717 54.6235 61.8717C54.8329 61.8717 55.0262 61.8314 55.2034 61.7508C55.3806 61.6663 55.5417 61.5394 55.6867 61.3703L56.315 61.9502C56.1136 62.1959 55.8639 62.3831 55.5659 62.512C55.2719 62.6409 54.9396 62.7053 54.5691 62.7053ZM56.9758 62.6328V58.4042H58.8062C59.1848 58.4042 59.511 58.4666 59.7849 58.5914C60.0587 58.7122 60.2701 58.8874 60.4192 59.117C60.5682 59.3465 60.6427 59.6204 60.6427 59.9386C60.6427 60.2527 60.5682 60.5245 60.4192 60.7541C60.2701 60.9796 60.0587 61.1528 59.7849 61.2736C59.511 61.3944 59.1848 61.4548 58.8062 61.4548H57.5195L57.9545 61.0259V62.6328H56.9758ZM59.664 62.6328L58.6069 61.0984H59.652L60.7212 62.6328H59.664ZM57.9545 61.1347L57.5195 60.6755H58.7519C59.0539 60.6755 59.2794 60.6111 59.4284 60.4822C59.5775 60.3493 59.652 60.1681 59.652 59.9386C59.652 59.705 59.5775 59.5237 59.4284 59.3949C59.2794 59.266 59.0539 59.2016 58.7519 59.2016H57.5195L57.9545 58.7364V61.1347ZM61.418 62.6328V58.4042H62.3967V62.6328H61.418ZM63.4002 62.6328V58.4042H65.2306C65.6092 58.4042 65.9354 58.4666 66.2093 58.5914C66.4831 58.7122 66.6945 58.8874 66.8436 59.117C66.9926 59.3465 67.0671 59.6204 67.0671 59.9386C67.0671 60.2527 66.9926 60.5245 66.8436 60.7541C66.6945 60.9836 66.4831 61.1608 66.2093 61.2857C65.9354 61.4065 65.6092 61.4669 65.2306 61.4669H63.9439L64.3789 61.0259V62.6328H63.4002ZM64.3789 61.1347L63.9439 60.6695H65.1763C65.4783 60.6695 65.7038 60.6051 65.8528 60.4762C66.0018 60.3473 66.0764 60.1681 66.0764 59.9386C66.0764 59.705 66.0018 59.5237 65.8528 59.3949C65.7038 59.266 65.4783 59.2016 65.1763 59.2016H63.9439L64.3789 58.7364V61.1347ZM68.5296 62.6328V59.2016H67.1764V58.4042H70.8614V59.2016H69.5082V62.6328H68.5296Z" fill="#FEF4F9"></path> <path d="M38.2553 30.9141V26.6854H40.0857C40.4643 26.6854 40.7905 26.7478 41.0643 26.8727C41.3382 26.9935 41.5496 27.1687 41.6986 27.3982C41.8476 27.6278 41.9222 27.9016 41.9222 28.2198C41.9222 28.5339 41.8476 28.8058 41.6986 29.0353C41.5496 29.2649 41.3382 29.4421 41.0643 29.5669C40.7905 29.6878 40.4643 29.7482 40.0857 29.7482H38.799L39.2339 29.3072V30.9141H38.2553ZM39.2339 29.4159L38.799 28.9508H40.0313C40.3334 28.9508 40.5589 28.8863 40.7079 28.7574C40.8569 28.6286 40.9314 28.4494 40.9314 28.2198C40.9314 27.9862 40.8569 27.805 40.7079 27.6761C40.5589 27.5472 40.3334 27.4828 40.0313 27.4828H38.799L39.2339 27.0177V29.4159ZM43.6719 30.9141V29.1864L43.8955 29.7784L42.0349 26.6854H43.0739L44.4996 29.0595H43.9015L45.3332 26.6854H46.2937L44.4331 29.7784L44.6506 29.1864V30.9141H43.6719ZM47.4965 30.9141V27.4828H46.1434V26.6854H49.8283V27.4828H48.4752V30.9141H47.4965ZM53.2545 26.6854H54.2332V30.9141H53.2545V26.6854ZM51.3335 30.9141H50.3549V26.6854H51.3335V30.9141ZM53.327 29.1803H51.261V28.3527H53.327V29.1803ZM57.2876 30.9866C56.9533 30.9866 56.6432 30.9322 56.3573 30.8234C56.0753 30.7147 55.8297 30.5617 55.6203 30.3643C55.4149 30.167 55.2538 29.9354 55.137 29.6696C55.0242 29.4038 54.9678 29.1139 54.9678 28.7997C54.9678 28.4856 55.0242 28.1956 55.137 27.9298C55.2538 27.664 55.4169 27.4325 55.6263 27.2351C55.8357 27.0378 56.0814 26.8848 56.3633 26.776C56.6452 26.6673 56.9513 26.6129 57.2815 26.6129C57.6158 26.6129 57.9219 26.6673 58.1997 26.776C58.4817 26.8848 58.7253 27.0378 58.9307 27.2351C59.1401 27.4325 59.3032 27.664 59.42 27.9298C59.5368 28.1916 59.5952 28.4816 59.5952 28.7997C59.5952 29.1139 59.5368 29.4058 59.42 29.6757C59.3032 29.9415 59.1401 30.173 58.9307 30.3704C58.7253 30.5637 58.4817 30.7147 58.1997 30.8234C57.9219 30.9322 57.6178 30.9866 57.2876 30.9866ZM57.2815 30.1529C57.4708 30.1529 57.644 30.1207 57.801 30.0562C57.9621 29.9918 58.1031 29.8992 58.2239 29.7784C58.3447 29.6575 58.4374 29.5146 58.5018 29.3495C58.5703 29.1843 58.6045 29.0011 58.6045 28.7997C58.6045 28.5984 58.5703 28.4151 58.5018 28.25C58.4374 28.0849 58.3447 27.9419 58.2239 27.8211C58.1071 27.7003 57.9682 27.6077 57.8071 27.5432C57.646 27.4788 57.4708 27.4466 57.2815 27.4466C57.0922 27.4466 56.917 27.4788 56.756 27.5432C56.5989 27.6077 56.46 27.7003 56.3391 27.8211C56.2183 27.9419 56.1237 28.0849 56.0552 28.25C55.9908 28.4151 55.9586 28.5984 55.9586 28.7997C55.9586 28.9971 55.9908 29.1803 56.0552 29.3495C56.1237 29.5146 56.2163 29.6575 56.3331 29.7784C56.4539 29.8992 56.5949 29.9918 56.756 30.0562C56.917 30.1207 57.0922 30.1529 57.2815 30.1529ZM60.3307 30.9141V26.6854H61.1402L63.6351 29.73H63.2424V26.6854H64.209V30.9141H63.4055L60.9046 27.8694H61.2972V30.9141H60.3307Z" fill="#FEF4F9"></path> </svg> 