<?xml version="1.0" encoding="UTF-8"?> <svg xmlns="http://www.w3.org/2000/svg" width="445" height="459" viewBox="0 0 445 459" fill="none"> <g opacity="0.8"> <path d="M32.5676 246.648C34.1201 247.019 36.2283 248.933 36.837 250.68L39.9244 258.125C40.6213 259.554 40.4889 262.385 39.6597 263.744L27.3366 283.891C24.6991 288.214 25.246 294.335 28.7921 298.305L39.2275 308.731C42.8618 311.96 49.2748 312.542 53.456 310.011L73.6034 297.687C74.8648 296.911 77.5729 296.638 79.4695 297.529L86.9057 300.598C88.4053 301.119 90.3194 303.218 90.6899 304.771L96.2208 327.741C97.394 332.61 102.043 336.615 107.035 337.074C107.035 337.074 110.096 337.356 114.683 337.356C119.27 337.356 122.331 337.074 122.34 337.074C127.324 336.624 131.973 332.61 133.146 327.741L138.686 304.771C139.056 303.227 140.961 301.119 142.708 300.51L150.153 297.423C151.467 296.779 154.511 296.911 155.772 297.687L175.92 310.011C177.693 311.096 179.81 311.669 182.059 311.669C185.102 311.669 188.049 310.602 190.333 308.564L200.76 298.129C204.13 294.344 204.676 288.222 202.039 283.9L189.716 263.753C188.887 262.394 188.754 259.563 189.557 257.887L192.627 250.45C193.147 248.951 195.247 247.037 196.799 246.666L219.769 241.135C224.639 239.962 228.643 235.313 229.102 230.321C229.102 230.321 229.384 227.26 229.384 222.673C229.384 218.086 229.102 215.025 229.102 215.016C228.652 210.032 224.639 205.383 219.769 204.201L196.808 198.679C195.255 198.309 193.147 196.395 192.539 194.648L189.451 187.203C188.754 185.774 188.887 182.942 189.716 181.584L202.039 161.436C204.676 157.114 204.13 150.992 200.583 147.023L190.148 136.596C186.505 133.359 180.083 132.777 175.92 135.317L155.772 147.64C154.511 148.408 151.794 148.699 149.906 147.799L142.47 144.729C140.97 144.209 139.065 142.109 138.694 140.557L133.155 117.587C131.982 112.717 127.333 108.713 122.34 108.254C122.322 108.263 119.262 107.98 114.675 107.98C110.088 107.98 107.027 108.263 107.018 108.263C102.034 108.713 97.3851 112.726 96.2031 117.595L90.6811 140.548C90.3106 142.101 88.3964 144.209 86.6498 144.817L79.2048 147.905C77.8817 148.549 74.8472 148.408 73.5858 147.64L53.4472 135.317C49.2748 132.777 42.9941 133.218 39.0335 136.764L28.6069 147.199C25.2372 150.983 24.6903 157.105 27.3278 161.428L39.6509 181.575C40.4801 182.934 40.6124 185.765 39.8097 187.441L36.74 194.877C36.2195 196.377 34.1201 198.291 32.5676 198.662L9.59738 204.192C4.72812 205.366 0.723332 210.014 0.264634 215.007C0.282276 215.007 0 218.068 0 222.655C0 227.242 0.282276 230.303 0.282276 230.312C0.732153 235.296 4.74576 239.944 9.61502 241.126L32.5676 246.648ZM8.82112 222.655C8.82112 218.615 9.05929 215.889 9.06811 215.801C9.17396 214.61 10.5236 213.049 11.6792 212.767L34.6494 207.236C39.104 206.16 43.594 202.084 44.9877 198L47.8457 191.058C49.857 186.938 49.5747 180.887 47.1842 176.97L34.8611 156.832C34.27 155.853 34.4376 153.912 35.0198 153.25L45.0847 143.177C45.8875 142.462 47.934 142.286 48.8514 142.842L68.9988 155.165C72.8183 157.502 79.3636 157.661 82.8303 155.941L89.7813 153.065C94.1125 151.574 98.1879 147.084 99.264 142.621L104.786 119.66C105.068 118.495 106.63 117.146 107.821 117.04C107.909 117.04 110.634 116.802 114.675 116.802C118.715 116.802 121.44 117.04 121.529 117.049C122.719 117.154 124.281 118.504 124.563 119.66L130.094 142.621C131.17 147.076 135.237 151.574 139.33 152.968L146.272 155.826C150.303 157.802 156.548 157.493 160.359 155.165L180.498 142.842C181.415 142.286 183.585 142.577 184.079 143L194.153 153.065C194.911 153.921 195.079 155.853 194.488 156.832L182.165 176.979C179.774 180.887 179.492 186.947 181.389 190.811L184.264 197.762C185.755 202.093 190.245 206.168 194.709 207.245L217.67 212.767C218.834 213.049 220.184 214.61 220.29 215.801C220.29 215.889 220.528 218.615 220.528 222.655C220.528 226.695 220.29 229.421 220.281 229.509C220.175 230.7 218.825 232.261 217.67 232.543L194.7 238.074C190.245 239.151 185.755 243.226 184.361 247.31L181.503 254.252C179.492 258.372 179.774 264.423 182.165 268.34L194.488 288.478C195.079 289.457 194.911 291.398 194.329 292.06L184.264 302.133C183.788 302.557 182.924 302.83 182.05 302.83C181.442 302.83 180.877 302.698 180.507 302.469L160.359 290.145C156.548 287.817 150.003 287.649 146.528 289.369L139.577 292.245C135.245 293.736 131.17 298.234 130.103 302.689L124.572 325.65C124.29 326.815 122.728 328.164 121.537 328.27C121.44 328.27 118.715 328.508 114.675 328.508C110.634 328.508 107.909 328.27 107.821 328.261C106.63 328.156 105.068 326.806 104.786 325.65L99.2552 302.68C98.179 298.226 94.1037 293.736 90.0195 292.342L83.0773 289.484C81.2778 288.602 79.099 288.143 76.7702 288.143C73.868 288.143 71.107 288.858 68.99 290.154L48.8514 302.477C47.934 303.033 45.7551 302.733 45.27 302.319L35.1963 292.245C34.4376 291.389 34.27 289.457 34.8611 288.478L47.1842 268.331C49.5747 264.423 49.857 258.363 47.9604 254.499L45.0847 247.548C43.594 243.217 39.104 239.142 34.6405 238.066L11.6792 232.543C10.5148 232.261 9.16514 230.7 9.05929 229.509C9.05929 229.421 8.82112 226.695 8.82112 222.655Z" fill="#230040"></path> <path d="M114.676 271.173C141.431 271.173 163.192 249.411 163.192 222.657C163.192 195.902 141.431 174.141 114.676 174.141C87.9219 174.141 66.1602 195.902 66.1602 222.657C66.1602 249.411 87.9219 271.173 114.676 271.173ZM114.676 182.962C136.561 182.962 154.371 200.772 154.371 222.657C154.371 244.542 136.561 262.352 114.676 262.352C92.7911 262.352 74.9813 244.542 74.9813 222.657C74.9813 200.772 92.7911 182.962 114.676 182.962Z" fill="#230040"></path> <path d="M242.914 312.144C243.915 313.026 244.702 315.296 244.445 316.858L243.716 323.706C243.654 325.061 242.408 327.16 241.243 327.87L223.943 338.397C220.237 340.658 218.161 345.518 219.181 349.905L222.69 361.862C224.076 365.721 228.593 368.646 232.718 368.343L252.647 366.787C253.896 366.686 256.014 367.527 257.059 368.938L261.327 374.148C262.228 375.124 262.796 377.459 262.441 378.782L257.231 398.365C256.128 402.516 257.95 407.357 261.465 409.639C261.465 409.639 263.62 411.038 267.02 412.814C270.42 414.59 272.803 415.561 272.81 415.565C276.686 417.153 281.759 415.905 284.602 412.662L298.017 397.366C298.917 396.337 301.184 395.474 302.725 395.688L309.495 396.227C310.73 396.247 312.933 397.526 313.553 398.604L323.493 415.762C324.367 417.272 325.704 418.527 327.371 419.398C329.627 420.577 332.244 420.907 334.763 420.244L346.721 416.358C350.752 414.789 353.639 410.353 353.435 406.05L352.466 385.98C352.402 384.627 353.452 382.426 354.726 381.464L360.015 377.007C361.009 376.069 363.34 375.429 364.641 375.749L383.909 380.443C387.994 381.438 392.847 379.459 395.21 375.845C395.21 375.845 396.66 373.631 398.519 370.148C400.378 366.665 401.409 364.231 401.413 364.225C403.099 360.266 402.008 355.182 398.878 352.399L384.096 339.316C383.095 338.433 382.308 336.163 382.565 334.601L383.294 327.753C383.356 326.398 384.602 324.299 385.767 323.589L403.067 313.062C406.774 310.802 408.849 305.942 407.829 301.554L404.32 289.597C402.932 285.728 398.407 282.799 394.292 283.116L374.363 284.672C373.117 284.766 370.986 283.935 369.951 282.521L365.683 277.311C364.782 276.335 364.221 274.003 364.576 272.681L369.779 253.095C370.882 248.943 369.06 244.102 365.545 241.821C365.528 241.821 363.374 240.421 359.974 238.645C356.574 236.869 354.19 235.898 354.184 235.895C350.307 234.306 345.235 235.554 342.385 238.793L328.99 254.083C328.086 255.119 325.813 255.978 324.272 255.764L317.502 255.226C316.26 255.202 314.068 253.92 313.444 252.849L303.511 235.694C301.448 232.15 296.613 230.053 292.24 231.211L280.283 235.098C276.251 236.667 273.365 241.103 273.568 245.406L274.537 265.476C274.601 266.829 273.552 269.03 272.278 269.992L266.988 274.449C265.995 275.386 263.663 276.027 262.362 275.707L243.094 271.012C239.01 270.018 234.157 271.997 231.794 275.61C231.807 275.617 230.357 277.832 228.498 281.315C226.639 284.798 225.608 287.231 225.604 287.238C223.918 291.197 225.009 296.281 228.139 299.063L242.914 312.144ZM235.036 284.731C236.674 281.663 237.955 279.686 237.997 279.622C238.558 278.759 240.192 278.096 241.162 278.329L260.43 283.024C264.168 283.931 269.148 282.575 271.836 280.014L276.768 275.849C279.929 273.5 282.172 268.796 281.987 264.897L281.015 244.834C280.973 243.861 281.884 242.453 282.584 242.176L294.127 238.424C295.011 238.192 296.6 238.851 297.055 239.628L306.994 256.786C308.878 260.04 313.666 262.695 316.932 262.731L323.25 263.239C327.065 263.784 331.905 261.953 334.512 258.981L347.911 243.684C348.592 242.909 350.296 242.489 351.222 242.87C351.287 242.904 353.404 243.779 356.399 245.343C359.393 246.907 361.317 248.143 361.379 248.184C362.219 248.726 362.829 250.355 362.57 251.342L357.364 270.918C356.356 274.717 357.547 279.708 360.016 282.351L364.004 287.209C366.191 290.27 370.946 292.454 374.714 292.161L394.636 290.602C395.541 290.536 397.031 291.597 397.226 292.11L400.614 303.653C400.83 304.596 400.171 306.128 399.336 306.642L382.036 317.169C378.681 319.21 376.015 323.703 375.855 327.371L375.17 333.762C374.52 337.628 376.196 342.461 379.068 345.006L393.85 358.09C394.599 358.755 394.967 360.463 394.562 361.409C394.527 361.475 393.598 363.637 391.961 366.705C390.324 369.773 389.043 371.75 389 371.814C388.439 372.677 386.806 373.34 385.835 373.107L366.567 368.412C362.829 367.504 357.849 368.86 355.161 371.422L350.229 375.586C347.069 377.935 344.826 382.64 345.01 386.539L345.983 406.602C346.024 407.574 345.113 408.983 344.414 409.26L332.871 413.012C332.346 413.149 331.594 413.022 330.947 412.683C330.496 412.448 330.131 412.129 329.949 411.811L320.01 394.653C318.129 391.409 313.345 388.748 310.072 388.708L303.754 388.2C299.939 387.655 295.095 389.493 292.499 392.462L279.094 407.755C278.412 408.53 276.708 408.95 275.783 408.569C275.711 408.532 273.594 407.657 270.599 406.093C267.604 404.528 265.68 403.292 265.619 403.251C264.779 402.71 264.169 401.08 264.428 400.094L269.637 380.511C270.645 376.712 269.444 371.724 266.981 369.085L262.994 364.227C262.017 362.86 260.588 361.668 258.862 360.766C256.711 359.643 254.375 359.116 252.28 359.281L232.358 360.84C231.453 360.907 229.96 359.835 229.768 359.333L226.384 347.783C226.168 346.84 226.827 345.308 227.662 344.793L244.961 334.267C248.317 332.225 250.982 327.733 251.142 324.065L251.828 317.674C252.478 313.808 250.802 308.975 247.929 306.429L233.147 293.346C232.399 292.68 232.031 290.972 232.435 290.027C232.471 289.96 233.399 287.798 235.036 284.731Z" fill="#230040"></path> <path d="M293.836 362.553C313.668 372.912 338.618 364.815 349.461 344.5C360.304 324.185 352.992 299.235 333.161 288.876C313.33 278.516 288.38 286.614 277.537 306.928C266.694 327.243 274.005 352.193 293.836 362.553ZM329.586 295.574C345.808 304.048 351.792 324.467 342.922 341.084C334.053 357.702 313.633 364.329 297.411 355.855C281.189 347.381 275.206 326.961 284.075 310.344C292.945 293.726 313.364 287.099 329.586 295.574Z" fill="#230040"></path> <path d="M230.455 132.348C231.413 132.869 232.446 134.533 232.518 135.823L233.152 141.405C233.343 142.495 232.719 144.39 231.912 145.166L219.933 156.669C217.367 159.138 216.569 163.381 218.165 166.688L223.1 175.571C224.896 178.391 229.032 179.903 232.281 178.916L247.959 174.078C248.942 173.772 250.787 174.058 251.874 174.993L256.217 178.368C257.112 178.982 257.982 180.738 257.933 181.854L257.243 198.381C257.097 201.884 259.417 205.408 262.636 206.588C262.636 206.588 264.61 207.313 267.648 208.112C270.686 208.912 272.766 209.254 272.772 209.255C276.158 209.819 279.997 207.91 281.697 204.815L289.719 190.217C290.257 189.236 291.918 188.14 293.19 188.032L298.706 187.237C299.698 187.03 301.688 187.65 302.377 188.396L313.384 200.255C314.353 201.299 315.646 202.057 317.136 202.449C319.152 202.979 321.305 202.769 323.204 201.787L332.087 196.533C335.036 194.557 336.558 190.504 335.63 187.116L331.287 171.319C330.995 170.254 331.444 168.312 332.294 167.317L335.736 162.813C336.365 161.888 338.118 160.957 339.216 160.977L355.477 161.232C358.924 161.285 362.457 158.834 363.707 155.531C363.707 155.531 364.474 153.506 365.343 150.398C366.212 147.291 366.605 145.168 366.607 145.162C367.254 141.707 365.476 137.858 362.476 136.208L348.316 128.466C347.358 127.945 346.324 126.28 346.252 124.991L345.618 119.409C345.427 118.319 346.052 116.424 346.858 115.648L358.837 104.145C361.403 101.676 362.201 97.433 360.605 94.1257L355.67 85.2431C353.871 82.415 349.728 80.9015 346.489 81.8973L330.811 86.7358C329.83 87.0359 327.976 86.7597 326.896 85.8212L322.553 82.4457C321.658 81.8317 320.794 80.0773 320.843 78.9609L321.527 62.4329C321.673 58.9295 319.353 55.4061 316.134 54.2254C316.12 54.2283 314.147 53.5037 311.109 52.7044C308.071 51.9051 305.991 51.563 305.985 51.5615C302.599 50.9978 298.76 52.9071 297.054 56.0002L289.047 70.5888C288.508 71.5761 286.841 72.6709 285.569 72.7789L280.053 73.5734C279.055 73.7791 277.072 73.1548 276.382 72.415L265.38 60.5568C263.098 58.1085 258.855 57.313 255.56 59.0254L246.677 64.2787C243.729 66.2555 242.206 70.3079 243.134 73.6959L247.477 89.4935C247.769 90.5583 247.32 92.4998 246.471 93.4955L243.029 97.9988C242.4 98.9241 240.647 99.8552 239.548 99.8357L223.288 99.5804C219.841 99.5268 216.308 101.979 215.058 105.281C215.069 105.284 214.302 107.309 213.433 110.417C212.564 113.525 212.171 115.648 212.169 115.654C211.523 119.109 213.3 122.958 216.3 124.607L230.455 132.348ZM219.275 111.954C220.041 109.217 220.715 107.411 220.737 107.353C221.033 106.565 222.223 105.742 223.042 105.752L239.302 106.008C242.456 106.055 246.202 104.076 247.899 101.552L251.107 97.3461C253.22 94.9055 254.18 90.7565 253.339 87.6864L248.994 71.8948C248.788 71.1285 249.267 69.8428 249.778 69.4961L258.352 64.4247C259.019 64.0805 260.408 64.3175 260.91 64.8539L271.918 76.7137C274.005 78.963 278.309 80.2111 280.931 79.6497L286.079 78.9126C289.23 78.6573 292.78 76.3254 294.339 73.4888L302.347 58.8942C302.755 58.1545 304.044 57.5122 304.853 57.6479C304.911 57.6633 306.762 57.9769 309.437 58.6809C312.113 59.3848 313.873 60.0212 313.93 60.0425C314.698 60.3217 315.477 61.5082 315.445 62.3403L314.756 78.8608C314.625 82.0664 316.465 85.823 318.912 87.4805L322.968 90.6265C325.263 92.6677 329.458 93.5468 332.423 92.633L348.095 87.7929C348.808 87.5763 350.19 88.1516 350.437 88.5246L355.201 97.099C355.541 97.8109 355.286 99.149 354.709 99.7094L342.73 111.212C340.406 113.443 339.071 117.5 339.595 120.448L340.182 125.659C340.349 128.853 342.55 132.397 345.302 133.903L359.462 141.646C360.18 142.04 360.778 143.333 360.622 144.158C360.605 144.218 360.247 146.106 359.481 148.843C358.715 151.58 358.041 153.386 358.019 153.444C357.723 154.232 356.533 155.055 355.714 155.045L339.454 154.79C336.3 154.743 332.554 156.721 330.857 159.246L327.649 163.451C325.536 165.892 324.576 170.041 325.417 173.111L329.762 188.902C329.968 189.669 329.489 190.954 328.978 191.301L320.404 196.372C320.008 196.576 319.384 196.611 318.805 196.459C318.402 196.353 318.053 196.165 317.851 195.945L306.844 184.085C304.761 181.843 300.458 180.589 297.831 181.149L292.682 181.886C289.531 182.141 285.98 184.479 284.429 187.311L276.415 201.905C276.007 202.644 274.717 203.287 273.909 203.151C273.844 203.134 271.994 202.82 269.319 202.116C266.643 201.412 264.883 200.776 264.826 200.755C264.058 200.475 263.279 199.289 263.311 198.457L264.001 181.93C264.133 178.725 262.285 174.973 259.844 173.317L255.788 170.171C254.764 169.259 253.407 168.569 251.865 168.163C249.943 167.658 247.979 167.661 246.332 168.17L230.659 173.01C229.946 173.227 228.56 172.644 228.317 172.279L223.555 163.698C223.215 162.986 223.47 161.648 224.047 161.088L236.026 149.585C238.35 147.354 239.685 143.297 239.161 140.349L238.574 135.138C238.407 131.944 236.206 128.401 233.454 126.894L219.294 119.152C218.576 118.757 217.978 117.464 218.134 116.639C218.151 116.579 218.509 114.691 219.275 111.954Z" fill="#230040"></path> <path d="M280.188 163.269C297.907 167.931 316.443 156.979 321.513 138.852C326.583 120.726 316.294 102.19 298.576 97.528C280.857 92.8661 262.321 103.818 257.251 121.945C252.181 140.071 262.47 158.607 280.188 163.269ZM296.904 103.505C311.398 107.318 319.818 122.488 315.671 137.315C311.523 152.143 296.354 161.106 281.86 157.293C267.366 153.479 258.946 138.31 263.093 123.482C267.241 108.654 282.41 99.6911 296.904 103.505Z" fill="#230040"></path> <circle cx="65.9022" cy="22.1522" r="22.1522" fill="#B396BC"></circle> <circle cx="394.326" cy="178.447" r="13.8451" fill="#B396BC"></circle> <circle cx="146.056" cy="431.056" r="17.3064" fill="#B396BC"></circle> </g> </svg> 