<?xml version="1.0" encoding="UTF-8"?> <svg xmlns="http://www.w3.org/2000/svg" width="84" height="82" viewBox="0 0 84 82" fill="none"> <rect x="22.5957" y="20.4258" width="16.6952" height="20.3482" transform="rotate(90 22.5957 20.4258)" fill="#230040"></rect> <path d="M22.123 4.72656L20.7034 20.6267L4.45638 20.6267L2.879 4.72656L22.123 4.72656Z" fill="#CB99B0" stroke="#230040" stroke-width="0.719279"></path> <path d="M49.0604 33.1297C49.4879 33.1054 50.9756 32.9874 51.4395 32.9874C50.8509 32.9874 51.0553 31.1399 51.0314 30.7912C50.9745 29.9631 51.0112 29.1331 50.9517 28.3066C50.8478 26.8636 50.5685 25.435 50.4789 23.9891C50.3715 22.2568 50.3897 20.5079 50.6232 18.7828C50.7614 17.7625 50.9617 16.7418 50.9617 15.7136C50.9617 15.4074 51.0074 15.3541 50.6531 15.3541C50.1823 15.3541 49.7273 15.367 49.2595 15.4094C48.383 15.4889 47.4708 15.3697 46.6116 15.2514C45.1988 15.0569 43.7335 14.8272 42.3909 14.4219C41.6857 14.209 41.0217 13.9129 40.3105 13.7148C39.3134 13.4372 38.2788 13.3295 37.2296 13.2684C34.8589 13.1305 32.4674 13.2472 30.0923 13.1815C26.7906 13.0903 23.4816 13.0669 20.1827 12.9524C17.6035 12.8629 14.8197 12.9628 12.3038 13.462C11.7191 13.578 11.0474 13.6102 10.7758 14.098C10.6446 14.3336 10.4672 14.5636 10.4672 14.8287C10.4672 15.3576 10.978 16.2382 11.6916 16.3653C14.8204 16.9228 17.9707 16.7761 21.1682 16.7761H23.6767C24.2308 16.7761 24.7853 16.7705 25.3391 16.792C25.5433 16.7999 26.1521 16.7525 26.3245 16.8947C26.5532 17.0831 26.3636 17.7765 26.011 17.8387C25.6668 17.8994 25.2323 17.8459 24.8812 17.8427C23.9504 17.8342 23.0264 17.7716 22.0939 17.7716H16.3254C14.2282 17.7716 12.0971 17.6873 10.0043 17.815C8.84183 17.886 6.53423 18.1988 6.35104 19.4346C6.25235 20.1003 6.49339 20.8684 7.11255 21.3346C7.42137 21.5671 8.08199 21.787 8.49621 21.8639C9.66457 22.0809 10.8461 22.1088 12.04 22.1088C14.5557 22.1088 17.0671 22.1799 19.5804 22.1799C20.7177 22.1799 21.8658 22.1446 22.9998 22.2273C23.3097 22.2499 24.2795 22.241 24.5328 22.4643C24.6218 22.5428 24.4767 22.854 24.4382 22.9304C24.158 23.4864 22.4057 23.1075 21.8849 23.1042C19.2142 23.0877 16.5479 23.0331 13.8766 23.0331C12.5411 23.0331 11.2053 23.0257 9.86992 23.0331C8.69554 23.0397 7.06839 22.9273 6.04743 23.4993C5.30997 23.9124 4.73345 24.2515 4.73345 25.0319C4.73345 25.4858 4.69891 25.9225 4.96738 26.3394C5.23323 26.7522 5.58359 27.0863 5.94291 27.4454C6.67711 28.1792 7.23122 28.2236 8.37676 28.2236C9.37823 28.2236 10.3895 28.138 11.388 28.0814C13.1657 27.9806 14.921 27.9979 16.6986 27.9352C18.6537 27.8663 20.5874 27.641 22.5518 27.6548C23.3592 27.6605 24.4979 27.6903 24.259 28.5436C24.1398 28.9692 22.5128 28.7924 22.1835 28.7924C19.6652 28.7924 17.1463 28.7784 14.6281 28.7924C12.8638 28.8022 10.9264 28.7347 9.21791 29.1519C8.29281 29.3778 7.24196 30.0912 7.24196 30.9136C7.24196 31.6555 7.50121 32.613 8.40662 32.9874C9.93513 33.6196 11.5812 33.4852 13.2494 33.4852L19.8791 33.4852C22.8141 33.4852 25.7616 33.2008 28.6937 33.2008H31.7447C32.052 33.2008 32.6619 33.202 32.6854 33.5563C32.7395 34.3722 31.8787 34.8563 31.1126 35.3022C30.4526 35.6864 29.7395 35.9928 28.9923 36.2581C27.7664 36.6934 26.7338 37.3641 25.6028 37.9251C24.9149 38.2663 24.3887 38.6474 23.8658 39.1378C23.4319 39.5448 23.5473 40.0701 23.5473 40.5638C23.5473 41.4702 24.3606 42.6629 25.6028 42.7245C27.2568 42.8065 28.9173 42.3695 30.3262 41.7172C31.3464 41.2449 32.2962 40.7531 33.3872 40.3821C33.8123 40.2375 34.1784 39.9289 34.5867 39.7422C34.8969 39.6003 35.2443 39.4832 35.5324 39.3155C35.9104 39.0955 36.387 38.987 36.8015 38.8139C37.2532 38.6252 37.6359 38.3562 38.0309 38.1068C38.6644 37.7069 39.4081 37.4801 40.1164 37.1825C41.483 36.6083 42.6468 35.6877 44.0533 35.1916C45.166 34.7991 46.1422 34.1366 47.2686 33.7854C47.7534 33.6342 48.1842 33.4127 48.6722 33.2719C48.8637 33.2166 48.8213 33.1432 49.0604 33.1297Z" fill="#FEF4F9" stroke="#230040" stroke-width="1.07892"></path> <rect x="65.0625" y="34.5156" width="16.6952" height="20.3482" transform="rotate(-180 65.0625 34.5156)" fill="#230040"></rect> <path d="M80.7637 34.043L64.8635 32.6233V16.3763L80.7637 14.7989V34.043Z" fill="#CB99B0" stroke="#230040" stroke-width="0.719279"></path> <path d="M62.7864 45.328C62.8106 45.7554 62.9286 47.2432 62.9286 47.707C62.9286 47.1185 64.7761 47.3229 65.1248 47.2989C65.9529 47.242 66.783 47.2788 67.6095 47.2193C69.0524 47.1154 70.481 46.8361 71.9269 46.7465C73.6593 46.6391 75.4081 46.6573 77.1332 46.8908C78.1535 47.0289 79.1743 47.2293 80.2025 47.2293C80.5086 47.2293 80.5619 47.275 80.5619 46.9207C80.5619 46.4499 80.549 45.9949 80.5066 45.5271C80.4271 44.6505 80.5463 43.7383 80.6646 42.8792C80.8591 41.4664 81.0889 40.001 81.4941 38.6585C81.707 37.9533 82.0032 37.2893 82.2012 36.5781C82.4789 35.581 82.5865 34.5464 82.6476 33.4972C82.7855 31.1265 82.6688 28.735 82.7345 26.3599C82.8257 23.0582 82.8491 19.7492 82.9636 16.4503C83.0531 13.871 82.9532 11.0872 82.454 8.57135C82.338 7.98663 82.3058 7.31493 81.818 7.04335C81.5825 6.91219 81.3524 6.73476 81.0873 6.73476C80.5584 6.73476 79.6778 7.24557 79.5507 7.95915C78.9932 11.088 79.1399 14.2383 79.1399 17.4357V19.9443C79.1399 20.4984 79.1455 21.0529 79.1241 21.6066C79.1162 21.8108 79.1635 22.4197 79.0214 22.5921C78.8329 22.8207 78.1395 22.6312 78.0773 22.2786C78.0166 21.9344 78.0701 21.4998 78.0733 21.1487C78.0818 20.2179 78.1444 19.294 78.1444 18.3615V12.5929C78.1444 10.4957 78.2287 8.36465 78.101 6.27188C78.03 5.10941 77.7172 2.8018 76.4814 2.61862C75.8157 2.51993 75.0476 2.76097 74.5814 3.38013C74.3489 3.68895 74.1291 4.34956 74.0521 4.76379C73.8351 5.93214 73.8072 7.1137 73.8072 8.30756C73.8072 10.8232 73.7361 13.3347 73.7361 15.848C73.7361 16.9853 73.7714 18.1333 73.6887 19.2674C73.6661 19.5773 73.675 20.547 73.4517 20.8003C73.3732 20.8894 73.062 20.7443 72.9856 20.7058C72.4296 20.4256 72.8085 18.6732 72.8118 18.1525C72.8283 15.4817 72.8829 12.8155 72.8829 10.1441C72.8829 8.80871 72.8903 7.47289 72.8829 6.1375C72.8763 4.96312 72.9887 3.33597 72.4168 2.31501C72.0036 1.57755 71.6645 1.00103 70.8841 1.00103C70.4302 1.00103 69.9935 0.966492 69.5766 1.23496C69.1638 1.5008 68.8297 1.85117 68.4706 2.21049C67.7368 2.94469 67.6924 3.49879 67.6924 4.64434C67.6924 5.64581 67.778 6.65712 67.8346 7.65555C67.9354 9.43325 67.9181 11.1886 67.9808 12.9662C68.0497 14.9212 68.275 16.855 68.2612 18.8194C68.2556 19.6268 68.2257 20.7655 67.3725 20.5266C66.9468 20.4074 67.1236 18.7804 67.1236 18.4511C67.1236 15.9328 67.1376 13.4139 67.1236 10.8957C67.1138 9.13133 67.1814 7.19403 66.7641 5.48549C66.5382 4.56039 65.8248 3.50954 65.0024 3.50954C64.2606 3.50954 63.303 3.76879 62.9286 4.6742C62.2964 6.20271 62.4309 7.84876 62.4309 9.51702V16.1466C62.4309 19.0817 62.7153 22.0291 62.7153 24.9613V28.0123C62.7153 28.3196 62.714 28.9295 62.3598 28.953C61.5438 29.0071 61.0597 28.1463 60.6138 27.3802C60.2296 26.7201 59.9232 26.0071 59.6579 25.2599C59.2226 24.0339 58.5519 23.0014 57.9909 21.8704C57.6497 21.1825 57.2687 20.6563 56.7782 20.1334C56.3713 19.6995 55.8459 19.8148 55.3522 19.8148C54.4458 19.8148 53.2531 20.6282 53.1915 21.8704C53.1095 23.5244 53.5465 25.1849 54.1988 26.5938C54.6711 27.614 55.1629 28.5638 55.5339 29.6548C55.6785 30.0798 55.9871 30.446 56.1739 30.8543C56.3157 31.1645 56.4328 31.5119 56.6005 31.7999C56.8205 32.178 56.929 32.6546 57.1021 33.0691C57.2908 33.5207 57.5598 33.9035 57.8092 34.2985C58.2091 34.9319 58.436 35.6757 58.7335 36.3839C59.3078 37.7506 60.2283 38.9144 60.7244 40.3209C61.1169 41.4336 61.7795 42.4098 62.1306 43.5362C62.2818 44.021 62.5033 44.4518 62.6442 44.9397C62.6994 45.1313 62.7728 45.0889 62.7864 45.328Z" fill="#FEF4F9" stroke="#230040" stroke-width="1.07892"></path> <rect x="61.4023" y="61.332" width="16.6952" height="20.3482" transform="rotate(-90 61.4023 61.332)" fill="#230040"></rect> <path d="M61.875 77.0312L63.2946 61.1311H79.5417L81.119 77.0312H61.875Z" fill="#CB99B0" stroke="#230040" stroke-width="0.719279"></path> <path d="M38.6701 52.343C38.2426 52.3672 36.7548 52.4852 36.291 52.4852C36.8796 52.4852 36.6751 54.3327 36.6991 54.6815C36.756 55.5095 36.7192 56.3396 36.7787 57.1661C36.8826 58.609 37.162 60.0376 37.2516 61.4836C37.3589 63.2159 37.3408 64.9648 37.1072 66.6898C36.9691 67.7101 36.7688 68.7309 36.7688 69.7591C36.7688 70.0652 36.7231 70.1186 37.0774 70.1186C37.5482 70.1186 38.0031 70.1057 38.471 70.0632C39.3475 69.9837 40.2597 70.103 41.1189 70.2213C42.5316 70.4158 43.997 70.6455 45.3395 71.0508C46.0448 71.2637 46.7088 71.5598 47.42 71.7579C48.417 72.0355 49.4516 72.1431 50.5009 72.2042C52.8716 72.3422 55.263 72.2255 57.6382 72.2911C60.9399 72.3824 64.2488 72.4058 67.5478 72.5202C70.127 72.6097 72.9108 72.5098 75.4267 72.0107C76.0114 71.8946 76.6831 71.8625 76.9547 71.3747C77.0859 71.1391 77.2633 70.909 77.2633 70.6439C77.2633 70.1151 76.7525 69.2345 76.0389 69.1073C72.9101 68.5499 69.7597 68.6965 66.5623 68.6965H64.0538C63.4996 68.6965 62.9451 68.7021 62.3914 68.6807C62.1872 68.6728 61.5784 68.7201 61.4059 68.578C61.1773 68.3896 61.3669 67.6961 61.7195 67.6339C62.0637 67.5732 62.4982 67.6268 62.8493 67.63C63.7801 67.6385 64.7041 67.7011 65.6365 67.7011H71.4051C73.5023 67.7011 75.6334 67.7854 77.7262 67.6576C78.8886 67.5867 81.1962 67.2738 81.3794 66.0381C81.4781 65.3723 81.2371 64.6043 80.6179 64.1381C80.3091 63.9055 79.6485 63.6857 79.2343 63.6088C78.0659 63.3917 76.8843 63.3638 75.6905 63.3638C73.1748 63.3638 70.6633 63.2927 68.15 63.2927C67.0128 63.2927 65.8647 63.3281 64.7307 63.2453C64.4207 63.2227 63.451 63.2317 63.1977 63.0083C63.1087 62.9298 63.2538 62.6187 63.2923 62.5422C63.5725 61.9863 65.3248 62.3652 65.8456 62.3684C68.5163 62.385 71.1825 62.4395 73.8539 62.4395C75.1893 62.4395 76.5252 62.447 77.8605 62.4395C79.0349 62.433 80.6621 62.5454 81.683 61.9734C82.4205 61.5603 82.997 61.2212 82.997 60.4408C82.997 59.9869 83.0316 59.5501 82.7631 59.1333C82.4972 58.7205 82.1469 58.3863 81.7876 58.0272C81.0534 57.2935 80.4993 57.2491 79.3537 57.2491C78.3522 57.2491 77.3409 57.3347 76.3425 57.3913C74.5648 57.492 72.8095 57.4747 71.0318 57.5374C69.0768 57.6064 67.143 57.8317 65.1786 57.8179C64.3713 57.8122 63.2325 57.7824 63.4715 56.9291C63.5906 56.5035 65.2176 56.6802 65.547 56.6802C68.0652 56.6802 70.5842 56.6942 73.1023 56.6802C74.8667 56.6704 76.804 56.738 78.5126 56.3208C79.4377 56.0949 80.4885 55.3814 80.4885 54.559C80.4885 53.8172 80.2293 52.8597 79.3238 52.4852C77.7953 51.853 76.1493 51.9875 74.481 51.9875H67.8514C64.9163 51.9875 61.9689 52.2719 59.0368 52.2719H55.9858C55.6784 52.2719 55.0686 52.2707 55.0451 51.9164C54.991 51.1005 55.8518 50.6163 56.6179 50.1704C57.2779 49.7863 57.9909 49.4798 58.7381 49.2145C59.9641 48.7792 60.9967 48.1085 62.1276 47.5476C62.8155 47.2063 63.3418 46.8253 63.8647 46.3349C64.2986 45.9279 64.1832 45.4026 64.1832 44.9089C64.1832 44.0025 63.3699 42.8098 62.1276 42.7482C60.4737 42.6661 58.8132 43.1032 57.4043 43.7554C56.3841 44.2277 55.4342 44.7195 54.3433 45.0906C53.9182 45.2352 53.5521 45.5438 53.1438 45.7305C52.8335 45.8724 52.4862 45.9894 52.1981 46.1571C51.82 46.3772 51.3435 46.4856 50.9289 46.6588C50.4773 46.8474 50.0946 47.1165 49.6996 47.3659C49.0661 47.7657 48.3224 47.9926 47.6141 48.2902C46.2475 48.8644 45.0836 49.7849 43.6771 50.281C42.5645 50.6735 41.5883 51.3361 40.4619 51.6873C39.977 51.8385 39.5462 52.06 39.0583 52.2008C38.8667 52.2561 38.9092 52.3295 38.6701 52.343Z" fill="#FEF4F9" stroke="#230040" stroke-width="1.07892"></path> <rect x="22.668" y="50.957" width="16.6952" height="20.3482" fill="#230040"></rect> <path d="M6.9668 51.4297L22.8669 52.8493V69.0964L6.9668 70.6737V51.4297Z" fill="#CB99B0" stroke="#230040" stroke-width="0.719279"></path> <path d="M21.2058 36.4259C21.1816 35.9985 21.0636 34.5107 21.0636 34.0469C21.0636 34.6354 19.2161 34.431 18.8674 34.455C18.0393 34.5119 17.2092 34.4751 16.3827 34.5346C14.9398 34.6385 13.5112 34.9178 12.0652 35.0074C10.3329 35.1148 8.58408 35.0966 6.85898 34.8631C5.83868 34.725 4.81793 34.5246 3.78974 34.5246C3.48361 34.5246 3.43028 34.4789 3.43028 34.8332C3.43028 35.304 3.44314 35.759 3.48558 36.2269C3.56508 37.1034 3.44585 38.0156 3.32757 38.8747C3.13307 40.2875 2.90333 41.7529 2.49805 43.0954C2.28515 43.8006 1.98903 44.4646 1.79098 45.1759C1.51333 46.1729 1.40568 47.2075 1.34462 48.2567C1.20664 50.6274 1.32336 53.0189 1.25771 55.394C1.16645 58.6957 1.14306 62.0047 1.0286 65.3036C0.939116 67.8829 1.03899 70.6667 1.53817 73.1826C1.65418 73.7673 1.68635 74.439 2.17414 74.7106C2.40973 74.8417 2.63979 75.0191 2.90491 75.0191C3.43375 75.0191 4.31437 74.5083 4.44151 73.7948C4.99895 70.6659 4.85232 67.5156 4.85232 64.3182L4.85232 61.8097C4.85232 61.2555 4.84668 60.701 4.86812 60.1473C4.87603 59.9431 4.8287 59.3342 4.97083 59.1618C5.15924 58.9332 5.85271 59.1227 5.9149 59.4753C5.97561 59.8196 5.92206 60.2541 5.91885 60.6052C5.91036 61.536 5.84775 62.4599 5.84775 63.3924V69.161C5.84775 71.2582 5.76344 73.3893 5.8912 75.482C5.96217 76.6445 6.275 78.9521 7.51075 79.1353C8.17649 79.234 8.94457 78.9929 9.41076 78.3738C9.64328 78.065 9.86314 77.4043 9.94008 76.9901C10.1571 75.8218 10.185 74.6402 10.185 73.4463C10.185 70.9307 10.2561 68.4192 10.2561 65.9059C10.2561 64.7687 10.2208 63.6206 10.3035 62.4866C10.3261 62.1766 10.3171 61.2069 10.5405 60.9536C10.619 60.8645 10.9302 61.0096 11.0066 61.0481C11.5625 61.3283 11.1836 63.0807 11.1804 63.6014C11.1639 66.2722 11.1093 68.9384 11.1093 71.6098C11.1093 72.9452 11.1019 74.281 11.1093 75.6164C11.1159 76.7908 11.0035 78.4179 11.5754 79.4389C11.9886 80.1764 12.3276 80.7529 13.1081 80.7529C13.562 80.7529 13.9987 80.7874 14.4156 80.5189C14.8284 80.2531 15.1625 79.9027 15.5216 79.5434C16.2554 78.8092 16.2998 78.2551 16.2998 77.1096C16.2998 76.1081 16.2142 75.0968 16.1576 74.0984C16.0568 72.3207 16.0741 70.5653 16.0114 68.7877C15.9425 66.8327 15.7172 64.8989 15.731 62.9345C15.7366 62.1271 15.7665 60.9884 16.6197 61.2273C17.0454 61.3465 16.8686 62.9735 16.8686 63.3028C16.8686 65.8211 16.8546 68.34 16.8686 70.8582C16.8784 72.6226 16.8108 74.5599 17.2281 76.2684C17.454 77.1935 18.1674 78.2444 18.9898 78.2444C19.7316 78.2444 20.6891 77.9851 21.0636 77.0797C21.6958 75.5512 21.5613 73.9051 21.5613 72.2369V65.6073C21.5613 62.6722 21.2769 59.7248 21.2769 56.7926V53.7416C21.2769 53.4343 21.2782 52.8244 21.6324 52.8009C22.4483 52.7468 22.9325 53.6076 23.3784 54.3737C23.7625 55.0338 24.069 55.7468 24.3343 56.494C24.7696 57.72 25.4403 58.7526 26.0013 59.8835C26.3425 60.5714 26.7235 61.0976 27.214 61.6205C27.6209 62.0544 28.1463 61.9391 28.64 61.9391C29.5463 61.9391 30.739 61.1258 30.8007 59.8835C30.8827 58.2295 30.4457 56.5691 29.7934 55.1601C29.3211 54.14 28.8293 53.1901 28.4582 52.0991C28.3137 51.6741 28.0051 51.3079 27.8183 50.8996C27.6764 50.5894 27.5594 50.2421 27.3917 49.954C27.1717 49.5759 27.0632 49.0993 26.89 48.6848C26.7014 48.2332 26.4323 47.8504 26.183 47.4554C25.7831 46.822 25.5562 46.0782 25.2586 45.37C24.6844 44.0033 23.7639 42.8395 23.2678 41.433C22.8753 40.3203 22.2127 39.3441 21.8615 38.2177C21.7104 37.7329 21.4888 37.3021 21.348 36.8142C21.2927 36.6226 21.2194 36.6651 21.2058 36.4259Z" fill="#FEF4F9" stroke="#230040" stroke-width="1.07892"></path> <rect x="2.49414" y="33.793" width="19.381" height="2.98169" fill="#230040"></rect> </svg> 