<?xml version="1.0" encoding="UTF-8"?> <svg xmlns="http://www.w3.org/2000/svg" width="118" height="82" viewBox="0 0 118 82" fill="none"> <path d="M83.3571 58.332H102.041L102.863 72.9819C95.0534 74.842 90.6736 74.9305 82.8633 72.9819L83.3571 58.332Z" fill="#230040"></path> <path d="M74.9922 48.5537L72.3009 50.704L74.9288 52.9564L91.718 67.3464L93.0914 68.5236L94.4828 67.3749L110.574 54.0902L113.231 51.896L110.581 49.6894L93.8027 35.7187L92.4575 34.5986L91.0936 35.6883L74.9922 48.5537Z" fill="#230040" stroke="#FEF4F9" stroke-width="5.06938"></path> <path d="M78.4336 57.4511C77.3041 57.6411 77.4876 62.3286 77.4876 62.3286H79.3794C79.3794 62.3286 79.6207 57.2513 78.4336 57.4511Z" fill="#230040" stroke="#230040" stroke-width="1.68979"></path> <line x1="79.091" y1="51.2227" x2="79.091" y2="57.8817" stroke="#230040" stroke-width="1.68979"></line> <path d="M31.3922 27.9648H50.0763L50.898 42.6147C43.0885 44.4749 38.7087 44.5633 30.8984 42.6147L31.3922 27.9648Z" fill="#230040"></path> <path d="M23.0234 18.1943L20.3322 20.3446L22.9601 22.597L39.7492 36.9871L41.1227 38.1642L42.5141 37.0155L58.6049 23.7309L61.2626 21.5366L58.6126 19.3301L41.834 5.35932L40.4887 4.23918L39.1248 5.32894L23.0234 18.1943Z" fill="#230040" stroke="#FEF4F9" stroke-width="5.06938"></path> <path d="M26.4707 27.0878C25.3412 27.2778 25.5247 31.9653 25.5247 31.9653H27.4166C27.4166 31.9653 27.6578 26.888 26.4707 27.0878Z" fill="#230040" stroke="#230040" stroke-width="1.68979"></path> <line x1="27.1242" y1="20.8672" x2="27.1242" y2="27.5262" stroke="#230040" stroke-width="1.68979"></line> <path d="M68.0016 27.9648H86.6856L87.5074 42.6147C79.6979 44.4749 75.3181 44.5633 67.5078 42.6147L68.0016 27.9648Z" fill="#230040"></path> <path d="M59.6328 18.1943L56.9415 20.3446L59.5694 22.597L76.3586 36.9871L77.732 38.1642L79.1234 37.0155L95.2143 23.7309L97.872 21.5366L95.222 19.3301L78.4434 5.35932L77.0981 4.23918L75.7342 5.32894L59.6328 18.1943Z" fill="#230040" stroke="#FEF4F9" stroke-width="5.06938"></path> <path d="M63.0801 27.0878C61.9505 27.2778 62.1341 31.9653 62.1341 31.9653H64.0259C64.0259 31.9653 64.2672 26.888 63.0801 27.0878Z" fill="#230040" stroke="#230040" stroke-width="1.68979"></path> <line x1="63.7336" y1="20.8672" x2="63.7336" y2="27.5262" stroke="#230040" stroke-width="1.68979"></line> <path d="M16.0328 58.3242H34.7169L35.5386 72.974C27.7292 74.8342 23.3494 74.9227 15.5391 72.974L16.0328 58.3242Z" fill="#230040"></path> <path d="M7.66405 48.5537L4.97279 50.704L7.60068 52.9564L24.3899 67.3464L25.7633 68.5236L27.1547 67.3749L43.2455 54.0902L45.9033 51.896L43.2532 49.6894L26.4746 35.7187L25.1293 34.5986L23.7655 35.6883L7.66405 48.5537Z" fill="#230040" stroke="#FEF4F9" stroke-width="5.06938"></path> <path d="M11.1113 57.4471C9.9818 57.6372 10.1653 62.3247 10.1653 62.3247H12.0572C12.0572 62.3247 12.2984 57.2474 11.1113 57.4471Z" fill="#230040" stroke="#230040" stroke-width="1.68979"></path> <line x1="11.7648" y1="51.2266" x2="11.7648" y2="57.8856" stroke="#230040" stroke-width="1.68979"></line> <path d="M50.4782 65.9141H69.1622L69.9839 80.5639C62.1745 82.4241 57.7947 82.5125 49.9844 80.5639L50.4782 65.9141Z" fill="#230040"></path> <path d="M42.1094 56.1435L39.4181 58.2939L42.046 60.5462L58.8352 74.9363L60.2086 76.1135L61.6 74.9647L77.6908 61.6801L80.3486 59.4858L77.6985 57.2793L60.9199 43.3085L59.5747 42.1884L58.2108 43.2782L42.1094 56.1435Z" fill="#230040" stroke="#FEF4F9" stroke-width="5.06938"></path> <path d="M45.5566 65.037C44.4271 65.2271 44.6107 69.9145 44.6107 69.9145H46.5025C46.5025 69.9145 46.7438 64.8372 45.5566 65.037Z" fill="#230040" stroke="#230040" stroke-width="1.68979"></path> <line x1="46.2101" y1="58.8164" x2="46.2101" y2="65.4754" stroke="#230040" stroke-width="1.68979"></line> </svg> 