<?xml version="1.0" encoding="UTF-8"?> <svg xmlns="http://www.w3.org/2000/svg" width="27" height="27" viewBox="0 0 27 27" fill="none"> <g clip-path="url(#clip0_506_10)"> <path d="M24.3 0C25.0161 0 25.7028 0.284463 26.2092 0.790812C26.7155 1.29716 27 1.98392 27 2.7V24.3C27 25.0161 26.7155 25.7028 26.2092 26.2092C25.7028 26.7155 25.0161 27 24.3 27H2.7C1.98392 27 1.29716 26.7155 0.790812 26.2092C0.284463 25.7028 0 25.0161 0 24.3L0 2.7C0 1.98392 0.284463 1.29716 0.790812 0.790812C1.29716 0.284463 1.98392 0 2.7 0L24.3 0ZM18.2025 9.801C17.5022 9.77511 16.8065 9.92455 16.1786 10.2357C15.5507 10.5469 15.0105 11.01 14.607 11.583L14.4158 11.8823H14.3617V10.1205H10.521V23.0063H14.5215V16.632C14.5215 14.9513 14.841 13.3245 16.9245 13.3245C18.9787 13.3245 19.0057 15.246 19.0057 16.74V23.0063H23.0063V15.939L22.995 15.2077C22.8825 12.1027 21.969 9.801 18.2025 9.801ZM8.00775 10.1205H4.00275V23.0063H8.00775V10.1205ZM6.00525 3.717C5.38942 3.717 4.79881 3.96164 4.36335 4.3971C3.92789 4.83256 3.68325 5.42317 3.68325 6.039C3.68325 6.65483 3.92789 7.24544 4.36335 7.6809C4.79881 8.11636 5.38942 8.361 6.00525 8.361C6.62108 8.361 7.21169 8.11636 7.64715 7.6809C8.08261 7.24544 8.32725 6.65483 8.32725 6.039C8.32725 5.42317 8.08261 4.83256 7.64715 4.3971C7.21169 3.96164 6.62108 3.717 6.00525 3.717Z" fill="#FEF4F9"></path> </g> <defs> <clipPath id="clip0_506_10"> <rect width="27" height="27" fill="white"></rect> </clipPath> </defs> </svg> 