<?xml version="1.0" encoding="UTF-8"?> <svg xmlns="http://www.w3.org/2000/svg" width="50" height="13" viewBox="0 0 50 13" fill="none"> <g clip-path="url(#clip0_257_626)"> <path d="M15.7862 7.32139L17.9934 10.7143H16.2505L14.2862 7.59824V10.7143H12.8576V1.78574H14.2862V7.03574L16.1005 4.46426H17.9219L15.7862 7.32139ZM10.0719 4.28574C9.75911 4.2916 9.45211 4.39212 9.1772 4.57871C8.90229 4.7653 8.66765 5.0324 8.49338 5.35713V4.46426H7.14338V10.7143H8.57189V7.79463C8.55313 7.58271 8.56947 7.36824 8.61989 7.16455C8.6703 6.96087 8.75372 6.77233 8.86494 6.61069C8.97617 6.44904 9.11282 6.31774 9.26639 6.22496C9.41996 6.13218 9.58717 6.0799 9.7576 6.07139C10.5862 6.07139 10.7148 7.08926 10.7148 7.79463V10.7143H12.1434V7.40176C12.1434 5.4375 11.6219 4.28574 10.1005 4.28574H10.0719ZM22.8576 7.73213C22.8631 7.86299 22.8631 7.99414 22.8576 8.125H19.1076V8.1875C19.1685 8.55983 19.3335 8.89286 19.5731 9.12684C19.8126 9.36083 20.111 9.48045 20.4148 9.46426C20.6557 9.47736 20.8963 9.42955 21.1222 9.32371C21.348 9.21786 21.5544 9.05614 21.7291 8.84824L22.6791 9.74111C22.378 10.1252 22.0158 10.4261 21.616 10.6245C21.2161 10.8229 20.7875 10.9143 20.3576 10.8929C20.0016 10.921 19.6449 10.8533 19.3117 10.6943C18.9784 10.5354 18.6763 10.2889 18.4258 9.97152C18.1753 9.65413 17.9822 9.27324 17.8595 8.85457C17.7369 8.43589 17.6875 7.98919 17.7148 7.54463C17.7075 7.10577 17.7725 6.66973 17.906 6.26369C18.0394 5.85764 18.2383 5.4903 18.4902 5.18455C18.7422 4.87881 19.0419 4.64121 19.3705 4.48657C19.6992 4.33194 20.0498 4.26357 20.4005 4.28574C21.7434 4.28574 22.8576 5.47324 22.8576 7.73213ZM21.5291 6.96426C21.5238 6.7874 21.4898 6.61374 21.4291 6.45385C21.3685 6.29395 21.2824 6.15118 21.1761 6.03423C21.0698 5.91727 20.9456 5.82859 20.8111 5.77358C20.6765 5.71857 20.5344 5.69839 20.3934 5.71426C19.7653 5.62939 19.1964 6.18242 19.1076 6.96426H21.5291ZM1.42908 1.78574H0.000488281V10.7143H4.28619V8.92871H1.42908V1.78574ZM27.1434 1.78574H28.5719V10.7143H27.2219V10.0893C27.0505 10.3533 26.832 10.5634 26.5839 10.703C26.3359 10.8425 26.0651 10.9076 25.7934 10.8929C25.4614 10.8822 25.1346 10.7868 24.8332 10.6125C24.5317 10.4382 24.262 10.1886 24.0406 9.8792C23.8191 9.56978 23.6507 9.20703 23.5455 8.81322C23.4403 8.41942 23.4007 8.0029 23.4291 7.58926C23.3954 7.17503 23.431 6.75656 23.5337 6.36048C23.6364 5.9644 23.8039 5.59938 24.0256 5.28865C24.2474 4.97792 24.5184 4.72828 24.8215 4.55561C25.1246 4.38295 25.4531 4.29104 25.7862 4.28574C26.0343 4.27216 26.282 4.32042 26.515 4.42772C26.7481 4.53503 26.9616 4.69922 27.1434 4.91074V1.78574ZM27.2505 7.58926C27.273 7.38308 27.2598 7.17329 27.2119 6.97401C27.164 6.77474 27.0824 6.59063 26.9728 6.43408C26.8631 6.27754 26.7279 6.15221 26.5762 6.06655C26.4245 5.98089 26.2598 5.93688 26.0934 5.9375C25.41 5.99951 24.8922 6.73408 24.9291 7.58926C24.8922 8.44443 25.41 9.1791 26.0934 9.24111C26.2598 9.24173 26.4245 9.19773 26.5762 9.11206C26.7279 9.02639 26.8631 8.90105 26.9728 8.7445C27.0825 8.58794 27.164 8.40382 27.2119 8.20453C27.2598 8.00525 27.273 7.79544 27.2505 7.58926ZM5.71478 1.60713C5.48506 1.6112 5.26513 1.72408 5.0994 1.92297C4.93367 2.12187 4.8345 2.39196 4.82189 2.67871C4.82189 3.29502 5.22166 3.79473 5.71478 3.79473C6.20791 3.79473 6.60752 3.29492 6.60752 2.67871C6.5949 2.39199 6.49572 2.12194 6.33002 1.92307C6.16431 1.72419 5.9444 1.61132 5.71471 1.60723L5.71478 1.60713ZM5.00049 10.7143H6.42908V4.46426H5.00049V10.7143ZM40.0005 0.892871V11.6071C40.0005 11.8439 39.9252 12.071 39.7913 12.2385C39.6573 12.4059 39.4756 12.5 39.2862 12.5H30.7148C30.5253 12.5 30.3437 12.4059 30.2097 12.2385C30.0757 12.071 30.0005 11.8439 30.0005 11.6071V0.892871C30.0005 0.656067 30.0757 0.428962 30.2097 0.261516C30.3437 0.0940701 30.5253 0 30.7148 0L39.2862 0C39.4756 0 39.6573 0.0940701 39.7913 0.261516C39.9252 0.428962 40.0005 0.656067 40.0005 0.892871ZM32.8576 4.46426H31.4291V10.7143H32.8576V4.46426ZM33.0362 2.67861C33.0362 2.06221 32.6364 1.5625 32.1434 1.5625C31.6503 1.5625 31.2505 2.06221 31.2505 2.67861C31.2505 3.29492 31.6503 3.79463 32.1434 3.79463C32.6364 3.79463 33.0362 3.29492 33.0362 2.67861ZM38.5719 7.40176C38.5719 5.4375 38.0505 4.28574 36.5291 4.28574C36.2114 4.28578 35.8987 4.38353 35.6184 4.57037C35.3381 4.75722 35.0989 5.02742 34.9219 5.35713V4.46426H33.5719V10.7143H35.0005V7.79463C34.9817 7.58271 34.9981 7.36824 35.0485 7.16455C35.0989 6.96087 35.1823 6.77233 35.2935 6.61069C35.4048 6.44904 35.5414 6.31774 35.695 6.22496C35.8486 6.13218 36.0158 6.0799 36.1862 6.07139C37.0148 6.07139 37.1434 7.08926 37.1434 7.79463V10.7143H38.5719V7.40176Z" fill="#FEF4F9"></path> </g> <defs> <clipPath id="clip0_257_626"> <rect width="50" height="12.5" fill="white" transform="translate(0.000488281)"></rect> </clipPath> </defs> </svg> 