<?xml version="1.0" encoding="UTF-8"?> <svg xmlns="http://www.w3.org/2000/svg" width="451" height="230" viewBox="0 0 451 230" fill="none"> <path d="M56.6545 70.3922C68.2569 70.3922 77.6625 60.9995 77.6625 49.4129C77.6625 37.8264 68.2569 28.4336 56.6545 28.4336C45.0521 28.4336 35.6465 37.8264 35.6465 49.4129C35.6465 60.9995 45.0521 70.3922 56.6545 70.3922Z" stroke="#FEF4F9" stroke-width="5.88886" stroke-miterlimit="10" stroke-linecap="round" stroke-linejoin="round"></path> <path d="M225.059 45.7398C236.661 45.7398 246.067 36.3471 246.067 24.7606C246.067 13.174 236.661 3.78125 225.059 3.78125C213.456 3.78125 204.051 13.174 204.051 24.7606C204.051 36.3471 213.456 45.7398 225.059 45.7398Z" stroke="#FEF4F9" stroke-width="5.88886" stroke-miterlimit="10" stroke-linecap="round" stroke-linejoin="round"></path> <path d="M393.75 70.3922C405.353 70.3922 414.758 60.9995 414.758 49.4129C414.758 37.8264 405.353 28.4336 393.75 28.4336C382.148 28.4336 372.742 37.8264 372.742 49.4129C372.742 60.9995 382.148 70.3922 393.75 70.3922Z" stroke="#FEF4F9" stroke-width="5.88886" stroke-miterlimit="10" stroke-linecap="round" stroke-linejoin="round"></path> <path d="M56.6537 154.888C56.6537 154.888 72.2403 229.911 82.357 219.808C92.5222 209.656 76.2095 162.332 90.1019 167.746C103.994 173.16 118.177 219.131 129.698 215.747C141.218 212.363 147.317 175.19 112.126 132.603C76.9356 90.0164 45.714 94.512 28.8689 97.4607C8.39335 101.038 -0.900546 113.703 4.52088 125.836C9.9423 137.969 19.575 137.824 52.5876 115.685C89.2306 91.0799 100.654 71.7441 144.655 66.3301C188.656 60.9161 234.689 67.6836 259.763 103.503C284.789 139.323 279.416 184.617 279.416 191.384C279.416 198.152 276.705 225.173 265.185 223.82C253.664 222.466 246.888 149.861 230.672 144.253C214.407 138.646 211.697 167.021 207.001 183.263C202.306 199.505 204.049 225.85 188.946 226.527C173.844 227.204 161.645 192.061 167.744 154.211C173.844 116.361 198.724 94.0286 210.39 83.9256C222.104 73.7744 260.49 54.5353 318.044 66.5235C375.598 78.5116 391.572 113.026 410.789 127.189C427.634 139.613 440.558 140.724 445.98 128.543C451.401 116.361 447.867 97.6057 410.789 95.4304C373.662 93.2551 342.392 126.513 342.392 126.513C342.392 126.513 316.253 159.093 313.3 191.432C311.364 212.653 316.156 216.231 320.754 216.424C329.758 216.907 353.912 162.332 362.722 166.393C371.532 170.453 356.623 217.777 367.466 217.777C377.873 217.777 396.896 157.547 397.235 156.241L396.558 158.852" stroke="#FEF4F9" stroke-width="5.88886" stroke-miterlimit="10" stroke-linecap="round" stroke-linejoin="round"></path> </svg> 