<?xml version="1.0" encoding="UTF-8"?> <svg xmlns="http://www.w3.org/2000/svg" width="85" height="81" viewBox="0 0 85 81" fill="none"> <rect width="85" height="80.0556" rx="28.4907" fill="#230040"></rect> <path d="M10.9219 9.88281H74.4139" stroke="#FEF4F9" stroke-width="7.12269"></path> <path d="M80.8245 13.443H74.4141V6.32031C77.2059 8.58857 78.6024 10.1613 80.8245 13.443Z" fill="#FEF4F9"></path> <path d="M10.9224 6.31765V13.457H4.2793C5.93755 10.6859 9.49889 6.41225 10.9224 6.31765Z" fill="#FEF4F9"></path> <rect x="5.66797" y="23.8398" width="9.44444" height="6.11111" rx="3.05556" fill="#FEF4F9"></rect> <rect opacity="0.9" x="16.5273" y="23.8398" width="9.44444" height="6.11111" rx="3.05556" fill="#CB99B0"></rect> <rect x="27.3867" y="23.8398" width="9.44444" height="6.11111" rx="3.05556" fill="#FEF4F9"></rect> <rect x="38.25" y="23.8398" width="9.44444" height="6.11111" rx="3.05556" fill="#FEF4F9"></rect> <rect x="49.1133" y="23.8398" width="9.44444" height="6.11111" rx="3.05556" fill="#FEF4F9"></rect> <rect opacity="0.9" x="59.9727" y="23.8398" width="9.44444" height="6.11111" rx="3.05556" fill="#CB99B0"></rect> <rect x="70.8359" y="23.8398" width="9.44444" height="6.11111" rx="3.05556" fill="#FEF4F9"></rect> <rect x="5.66797" y="36.0625" width="9.44444" height="6.11111" rx="3.05556" fill="#FEF4F9"></rect> <rect x="16.5273" y="36.0625" width="9.44444" height="6.11111" rx="3.05556" fill="#FEF4F9"></rect> <rect opacity="0.9" x="27.3867" y="36.0625" width="9.44444" height="6.11111" rx="3.05556" fill="#CB99B0"></rect> <rect x="38.25" y="36.0625" width="9.44444" height="6.11111" rx="3.05556" fill="#FEF4F9"></rect> <rect x="49.1133" y="36.0625" width="9.44444" height="6.11111" rx="3.05556" fill="#FEF4F9"></rect> <rect opacity="0.9" x="59.9727" y="36.0625" width="9.44444" height="6.11111" rx="3.05556" fill="#CB99B0"></rect> <rect x="70.8359" y="36.0625" width="9.44444" height="6.11111" rx="3.05556" fill="#FEF4F9"></rect> <rect x="5.66797" y="48.2852" width="9.44444" height="6.11111" rx="3.05556" fill="#FEF4F9"></rect> <rect opacity="0.9" x="16.5273" y="48.2852" width="9.44444" height="6.11111" rx="3.05556" fill="#CB99B0"></rect> <rect x="27.3867" y="48.2852" width="9.44444" height="6.11111" rx="3.05556" fill="#FEF4F9"></rect> <rect x="38.25" y="48.2852" width="9.44444" height="6.11111" rx="3.05556" fill="#FEF4F9"></rect> <rect x="49.1133" y="48.2852" width="9.44444" height="6.11111" rx="3.05556" fill="#FEF4F9"></rect> <rect opacity="0.9" x="59.9727" y="48.2852" width="9.44444" height="6.11111" rx="3.05556" fill="#CB99B0"></rect> <rect x="70.8359" y="48.2852" width="9.44444" height="6.11111" rx="3.05556" fill="#FEF4F9"></rect> <rect x="5.66797" y="60.5078" width="9.44444" height="6.11111" rx="3.05556" fill="#FEF4F9"></rect> <rect x="16.5273" y="60.5078" width="9.44444" height="6.11111" rx="3.05556" fill="#FEF4F9"></rect> <rect opacity="0.9" x="27.3867" y="60.5078" width="9.44444" height="6.11111" rx="3.05556" fill="#CB99B0"></rect> <rect x="38.25" y="60.5078" width="9.44444" height="6.11111" rx="3.05556" fill="#FEF4F9"></rect> <rect x="49.1133" y="60.5078" width="9.44444" height="6.11111" rx="3.05556" fill="#FEF4F9"></rect> <rect opacity="0.9" x="59.9727" y="60.5078" width="9.44444" height="6.11111" rx="3.05556" fill="#CB99B0"></rect> <rect x="70.8359" y="60.5078" width="9.44444" height="6.11111" rx="3.05556" fill="#FEF4F9"></rect> </svg> 